<?xml version="1.0" encoding="utf-8"?>
<!-- Generator: Adobe Illustrator 24.0.0, SVG Export Plug-In . SVG Version: 6.00 Build 0)  -->
<svg version="1.1" id="Calque_1" xmlns="http://www.w3.org/2000/svg" xmlns:xlink="http://www.w3.org/1999/xlink" x="0px" y="0px"
	 viewBox="0 0 612 792" style="enable-background:new 0 0 612 792;" xml:space="preserve">
<style type="text/css">
	.st0{fill:#A50000;}
	.st1{fill:#A50101;}
	.st2{fill:#FDFCFC;}
	.st3{fill:#CFCFCF;}
	.st4{fill:#D3D3D3;}
	.st5{fill:#A2A2A2;}
	.st6{fill:#9F9F9F;}
	.st7{fill:#A70606;}
	.st8{fill:#C0C0C0;}
	.st9{fill:#A80909;}
	.st10{fill:#F3F2F2;}
	.st11{fill:#F3F3F3;}
	.st12{fill:#D0D0D0;}
	.st13{fill:#D4D4D4;}
	.st14{fill:#A09F9F;}
	.st15{fill:#EEEEEE;}
	.st16{fill:#6F6F6F;}
	.st17{fill:#AF2424;}
	.st18{fill:#707070;}
	.st19{fill:#717171;}
	.st20{fill:#E5D6D6;}
	.st21{fill:#757373;}
	.st22{fill:#D08D8D;}
	.st23{fill:#DAC7C7;}
	.st24{fill:#E8CECE;}
	.st25{fill:#DCC6C6;}
	.st26{fill:#B12A2A;}
	.st27{fill:#BD4E4E;}
	.st28{fill:#D08282;}
	.st29{fill:#E7D9D9;}
	.st30{fill:#B84848;}
	.st31{fill:#C9C9C9;}
	.st32{fill:#A9A8A8;}
	.st33{fill:#BCBCBC;}
	.st34{fill:#ADADAD;}
	.st35{fill:#C4C4C4;}
	.st36{fill:#B5B5B5;}
	.st37{fill:#BBBBBB;}
	.st38{fill:#B9B9B9;}
	.st39{fill:#A8A7A7;}
	.st40{fill:#B1B0B0;}
	.st41{fill:#AEA9A9;}
	.st42{fill:#C9C8C8;}
	.st43{fill:#A8A6A6;}
	.st44{fill:#FDFDFD;}
	.st45{fill:#FCFBFB;}
	.st46{fill:#A8A8A8;}
	.st47{fill:#A3A2A2;}
	.st48{fill:#F7F4F4;}
	.st49{fill:#B1B1B1;}
	.st50{fill:#C0BFBF;}
	.st51{fill:#BCBBBB;}
	.st52{fill:#DEC8C8;}
	.st53{fill:#D4ABAB;}
	.st54{fill:#E3D4D4;}
	.st55{fill:#DECCCC;}
</style>
<g>
	<path class="st0" d="M234.2,394.2c1.6,6,5.6,10.5,9.8,14.7c-0.6,2.5-2.3,1.4-3.6,1c-2.3-0.7-4.4-0.9-6.2,1
		c2.1,5.8,6.1,8.1,13.5,8.1c1.5,0,5.4-2.4,3.8,2.8c-0.5,1.6,1.6,1.1,2.6,0.9c3.8-0.6,7.3-2,10-4.9c1.4-3.5,5.2-5.5,6.2-9.3
		c1.5-2.1,3.1-4.2,3.8-6.8c0.4-1,0.8-2.1,1.4-3c0.4-0.6,0.8-1.1,1.4-1.5c0.8-0.5,1.6-1,2.5-0.2c0.7,1,0.3,2.1,0,3.1
		c0.6-1.4,0.7-2.9,0.6-4.5c0.3-2.8,1.7-5.2,2.9-7.7c0.4-1,0.9-2,1.4-3.1s0.8-2.1,1.2-3.2c1-2,1.7-4,3.5-5.5c0.4-0.3,0.9-0.6,1.4-0.8
		c9.3-1.4,18.5-1.4,27.8,0c0.5,0.1,1,0.4,1.5,0.6c0.4,0.3,0.8,0.6,1.1,1.1c1.1,2.3,1.7,4.8,3.3,6.9c0.3,0.4,0.5,0.8,0.7,1.2
		c0.4,0.9,0.5,1.8,0.5,2.8c0,1,0,1.9,0,2.9c0,0.7,0,1.5,0,2.2c0,1-0.2,1.9-0.4,2.9c-0.6,2-0.7,4.2-1.4,6.3c-0.6,1.8-1.4,3.4-2.2,5.1
		c-1,2-2.3,3.9-3.5,5.8c-1,1.5-2.4,2.6-3.7,3.8c-8.9,12.2-17.4,24.7-26.6,36.6c-10.1,13.1-22.2,24-39,27.7
		c-34.4,7.5-63.3-7.2-70.7-43.6c-0.4-1.9-0.4-3.5,0.1-5.4c1.5-4.7,2.8-9.5,4.2-14.3c-0.2-0.7,0-1.2,0.5-1.6
		c4.8-1.7,9.8-0.5,14.6-0.8c4.1-0.3,8.2,0.7,12.2-0.7c1.7-1.4,1.4-3.3,1.4-5c0-7.6,0-15.2,0-22.8c0-3.2,0.5-6.3,2.6-8.9
		c1.5-1.6,3.4-2.5,5.4-3.2c6.8-0.6,13.5-0.6,20.3,0c1.3,0.4,1.6,1.5,1.9,2.6c0.8,1.8,1.6,3.6,2.3,5.4c-1.4,3.4-4.6,3.1-7.4,3.3
		c-5.4,0.3-10.9-0.1-16.3,0.2c-0.4,0.1-0.9,0.3-1.3,0.6c-1,2-1.8,4,0.8,5.5c4.7,0.5,9.4-0.5,14.1,0.6
		C233.5,393.3,233.9,393.7,234.2,394.2z"/>
	<path class="st0" d="M551.8,258.9c-3.7,2-7.3,4.1-10.3,7c-1,1-3,1.6-2.3,3.4c0.6,1.4,2.4,0.7,3.6,0.7c9.3,0.3,18.1-2,27-4.2
		c1.6-0.4,3.1-1.4,5.4-0.1c-7.3,5.7-15.8,7.6-25.7,10.1c7.7,1.9,14,3.5,19,8.2c-3.7-0.3-7.4-0.9-11.1-0.9
		c-21.6,0.2-41.9,6.4-61.9,13.8c-20.6,7.7-36,21.6-46.4,41c-5.1,9.5-9.6,19.3-14.4,29c-0.5,1.4-0.4,2.9-1.3,4.2
		c-0.7,1.3-1.3,2.6-2.1,3.8c-0.4,0.5-1.1,0.6-1.4,1.2c-4.7,9.1-9.9,17.8-14.9,26.8c-2.5,4.5-5.5,6.1-10.3,5
		c-1.3,0.3-2.5,0.1-3.5-0.9c-1.1-1.8-1.8-3.7-2.5-5.6c-0.4-1.3-0.4-2.7-0.4-4.1c0-5,0-9.9,0-14.8c0-2.8-0.1-5.6,0.4-8.4
		c0.2-0.8,0.5-1.5,1-2.2c0.8-1.5,2.1-2.7,2.9-4.3c1-3.9,3.3-7,5.4-10.5c2.3,1.7-1.1,3.3,0.6,5.1c2.4-2.1,3.7-4.8,5.3-7.3
		c11.3-18.7,22.9-37.3,38.1-53.2c3.1-3.3,5.9-7.1,10.7-8.3c0.6,0.5,0.7,1.1,0.4,1.8c-1.7,1.7-3.7,3.1-4.9,5.4
		c-0.5,0.6-1,1.2-1.7,1.6c3.8-2.3,6.2-6.4,10.6-7.8c19.1-15.2,38.8-29.7,59-43.4c5-3.4,9.9-6.8,15.4-9.5
		c-5.6,7.2-12.4,13.1-18.4,20.9c5.7-0.9,10.1-3.1,14.7-4.8c0.7-0.3,3-2.9,3,0.8c-0.5,0.8-1.4,1.3-1.9,2.1c1-1.4,2.7-0.4,3.8-1.2
		c2.2-0.4,4.4-0.9,6.7-1.3C550.7,257.6,551.9,257,551.8,258.9z"/>
	<path class="st0" d="M151,381c0.4-2.7,0.7-5.3,1.1-8c0.9-1.3,0.2-2.7,0.3-4.1c0.4-2.1,0.9-4.1,1.6-6.1c0.5-1.3,0.9-2.6,1.4-4
		c1.6-3.3,2.8-6.5,7.8-6.2c3.1,0.2,5.5-2.9,8.1-4.6c1.3-0.9,0.2-1.6-0.4-2.4c-3.8-5.7-3.7-6.4,2.4-9.7c3.6-1.9,6.5-4.5,8.9-7.8
		c2.9-3.8,6.4-6.8,11-8.1c0.8-0.1,1.5,0,2.3,0.3c0.7,0.5,1.1,1.1,1.1,2c-5.4,7.2-5.1,15.1-2.5,23c2.4,7.3,0.4,13.6-2.9,19.9
		c-0.4,1.1-0.9,2.3-1.3,3.5c-0.4,1.1-0.7,2.2-0.9,3.4c-0.4,1.6-0.7,3.2-1,4.8c-0.4,1.6-0.7,3.2-0.9,4.8c-0.1,0.5-0.2,0.9-0.3,1.4
		c-0.6,1.5-0.6,3.1-0.6,4.8c0,0.7-0.2,1.4-0.4,2c-0.5,1.5-0.6,3.1-0.6,4.7c0,0.5-0.1,0.9-0.1,1.4c-0.1,0.5-0.2,0.9-0.3,1.4
		c-0.5,1.6-0.4,3.3-0.7,4.9c-0.6,2.1-0.7,4.3-0.9,6.5c-0.1,0.5-0.2,1-0.3,1.5c-0.9,2.3-0.6,5.1-3.1,6.7c-2.2,2.5-4,5.4-6.5,7.5
		c-4.4,3.8-6.7,7.7-2.5,12.9c-3.9,0.9-6.3-5.4-10.1-1.2c-2.9,3.2-0.1,7.1-0.8,10.6c-2.4,0.4-3-1.7-4.3-2.9c-2.8-2.5-4.5-2.1-5.4,1.5
		c-1.1,4.5-0.9,9.1-1.1,15.1c-1.7-4.1-2.8-7-4.1-9.8c-0.5-1-0.5-3.1-2.5-2.3c-1.6,0.6-2.8,1.8-2.1,3.9c0.8,2.7,1.1,5.5,0.6,8.3
		c-0.4-0.1-0.8-0.1-0.9-0.3c-3.4-7.8-3.4-7.9-10-2.2c-6.1,5.3-12.2,10.7-18.8,15.8c11.2-17,24.3-32.9,29.7-53.7
		c-4.7,0-6.8,3.3-9.7,5.2c-2.4,1.6-5.4,5.6-7.2,4.1c-2.2-1.8,1.9-4.4,2.9-6.9c3-6.9,1.9-10-4.8-11.6c-11.8-2.8-12.1-2.8-24.4,3
		c-1,0.5-1.9,1.5-3.2,0.6c3.7-6.8,5.9-8.7,16.6-14.2C106,393,99,387.2,92.9,380.6c-4.8-5.3-9.5-10.7-12.4-17.4
		c-3.2-7.4-3.6-14.8-0.8-22.5c1.4,0.5,1.3,1.2,1.2,1.8c-1.9,9.6,0.9,18,6,26c6.6,10.2,15.9,17.8,24.5,26.2c0.8,0.8,1.7,1.6,2.5,2.4
		c4,3.9,5.7,3.9,8-1.1c1.6-3.4,4.2-4.4,6.8-2.6c7.1,4.7,12.6,1.5,18-2.9c2.2-1.8,4.1-3.9,5.5-6.4c0.6-2.6,2.2-4.8,3.3-7.3
		c0.1-0.3,0.7-0.5,0.3-1c0,0.3-0.1,0.6-0.3,0.8C154.1,378.3,154.2,381.2,151,381z"/>
	<path class="st0" d="M359.9,353c5.4,5.3,9.6,11.4,11.2,18.9c0.1,2.6-1.5,3.5-3.7,3.8c-3-0.8-2,1-1.6,2.4c0.2,1.2,0.1,2.3-0.2,3.5
		c-0.3,1.1-0.7,2.2-1.2,3.3c-0.3,0.6-0.6,1.3-0.9,1.9c-1.5,9.4,0.1,17.7,8.3,23.7c0.9,0.3,1.7,0.7,2.4,1.3c2.5,2,5.2,3.6,8.6,3.3
		c0.5,0,1,0.1,1.6,0.2c5,0.2,10,0,15,0.1c1.9,0.1,4.1-0.4,5.4,1.7c-5.5,7.7-11.9,14.7-19.8,20.1c-14.5,9.9-32.8,7.5-44.6-5.6
		c-3.9-4.4-6.6-9.5-9.5-14.6c0.1-0.2,0.2-0.4,0.4-0.7c3.2-1.9,6.9-0.2,10.1-1.5c1.7-0.6,3.1-1.8,4.9-2.5c0.4-0.1,0.9-0.2,1.3-0.3
		c3.1-0.5,4.6-3,6.6-4.9c1.3-1.3,2.2-2.9,3-4.5c2.3-5.1,2.9-10.4,1.9-15.9c-0.3-0.6-0.6-1.2-0.9-1.9c-0.4-1-0.8-2.1-1.1-3.1
		c-0.5-1.6-1.7-3-2.5-4.4c-1.8-2.4-4.4-3.9-6.5-5.9c-3.2-2.2-6.9-2.9-10.6-3.3c-12.6,0-25.2,0-37.9,0c-2.3,0-4.7,0.5-6.5-1.5
		c2.7-5.9,6-11.5,9.7-16.9c0.9-0.2,1.5,0,1.1,1.1c-0.1,0.9-0.2,1.7-0.3,2.6c0.2,0.8-1.6,2.4,0.9,2.2c6.2-8.7,12.9-16.8,22.9-22
		c-1.4,2.2-2.9,4.4-4.8,7.4c10.5-2.9,19.8-8.2,30.4-7.3c-2.7,1.6-5.9,2.1-8.7,4.6c3.2,0.5,6,0.8,8.8,1.5c7.2,1.6,12.7,5.6,16.2,12.2
		c0.4,0.8,1.1,1.9-0.1,2.5c-0.5,0.2-1.5-0.5-2.2-0.8c-2-1-3.9-2.4-6.2-2.6C359.3,351.1,359.5,352,359.9,353z"/>
	<path class="st0" d="M167.3,312c3.8-6.6,8.3-12.5,16.4-16c-1.9,4.5-6.1,7.4-4.4,12.7c10.7-6.9,19.8-16.7,33.9-17.2
		c-2.2,3.3-6.8,4-8.2,8.5c8.9-0.1,17.4,0.1,25.8,2c-0.4,2.5-2.3,1-3.5,1.3c-2.1,0.5-4.3-0.5-6.3,0.6c-0.6,0.1-1.3,0.2-1.9,0.4
		c-1.7,0.7-3.9,1.6-3.7,3.5c0.3,2.3,2.7,1,4.1,1.2c10.2,1.2,18.5,5.5,24.4,14.3c-5.2-1.6-10-4.8-16.3-3c6.9,4.6,13,9.6,17.1,17.4
		c-3.9-0.6-6.9-2.6-10.8-1.1c5.6,6,9.6,12.8,12.5,21.3c-3.3-1.5-6.4-2.9-8.8,0c-1.9,2.4-2.3,5.1-0.7,7.9c-0.1,2.2-1.8,2.2-3.2,2.2
		c-9.9,0.3-19.8,0.2-29.7,0c-1.3,0-2.6-0.4-3.4-1.7c-0.8-3.7,1-7.1,1.5-10.7c0.6-3.9,0.7-7.2-3.7-9.2c-3.1-1.4-3-4.6-2.7-7.4
		c0.6-4.9,1.1-9.9,2.4-14.7c0.8-2.8,0.2-4.4-2.9-4.8c-2-0.3-4.1-1.1-5.1-2.9c-2.2-3.9-4.8-2.6-7.3-0.8c-4.8,3.3-9.3,6.9-12.9,11.6
		c-1.1,1.5-2.4,3.3-4.4,2.5c-1.9-0.8-1.5-3-1.4-4.8C164.7,320.7,164.8,316.1,167.3,312z"/>
	<path class="st1" d="M150.9,369.8c-1.6,1.2-2.7,2.4-5.2,0.5c-3.2-2.4-6.3-0.5-7.5,3.5c-0.7,2.4-1.5,4.7-2.2,7
		c-1.9,0-1.2-1.1-0.9-2.1c0.5-11.2-0.7-22.2-4.8-32.8c-1.5-3.8-3.7-6.9-6.5-9.9c-7.8-8.2-12.1-17.6-9.3-29.2
		c1.3,5.2,1.6,10.9,6.7,15.5c0-17.3,3-33.1,12.4-47.2c9.5-14.2,23-22.9,39.7-28.1c-0.7,2.6-2.7,3-4,3.9c-13,8.3-24.5,18.3-33.1,31.3
		c-6.2,9.3-9.7,19.5-10.9,30.7c-1.6,15.7,7.3,26.6,16.7,37.3c0.9,1.1,2.4,1.8,4,1.8c0.6,0.4,1.2,0.4,1.9,0.4c6.8,0,7.8,1.1,7.2,7.8
		c-0.9,2.2-1.1,4.5-1.9,6.7C152.7,368.1,152,369.1,150.9,369.8z"/>
	<path class="st2" d="M193.3,338.6c-1-5.8,0.5-10.8,5.1-14.6c0.7-1.5,0.1-1.6-1.1-1.1c-0.6,0-1.3,0-1.9,0c-2.9-0.6-4.7-2.3-5.2-5.2
		c-7.9,4.2-13.9,10.5-19.7,17.1c-0.2,0.3-0.6,0.4-0.7,0.7c-1.8,8-7.9,13.7-10.8,21.1c-0.5,1.4-0.7,2.9-0.5,4.4
		c-0.4,1.3-0.8,2.6-1.3,3.9c-1.9,0.1-1.3-1-1-2c0-0.6-0.1-1.3,0-2c0.6-3.3,0.3-5.7-4.1-5.2c-1.3,0.1-2.9-0.5-3.9-1.7
		c4.1-0.5,2.1-5.8,5.5-6.9c0.6,0.9,0.4,1.9,0.6,2.9c0.4,1.8,1.7,2.4,2.6,0.7c3.1-5.6,8.3-10.4,8.1-17.6c1.9-3,0.3-6.5,1.3-9.7
		c0.9-3.2,0.3-6.9,3.3-9.4c-1.7,5.7-3.2,11.5-2,17.6c2,0.6,2.5-1.3,3.3-2.3c4.9-5.7,10.3-10.8,17.1-14.2c1.9-1,4-2.9,4.6,1.7
		c0.4,3.4,4.5,3.6,7.3,4.1c3.1,0.5,3.3,1.6,2.5,4.3c-1.9,6.2-2.7,12.6-2.7,19.1c0,2.2,0.1,3.7,3.1,3.9c3.1,0.2,3.6,3.1,3.5,5.7
		c-0.1,4.5-1.1,8.9-2.9,13c-1.8,2.8-7.4,4.8-10.2,3.6c-1.3-0.6-1.6-1.6-0.9-2.8c0.1-1.9,0.9-3.5,1.9-5"/>
	<path class="st3" d="M346.8,371.6c2.2,2.1,4.5,4.2,6.7,6.3c-1.4,1.4-3.3,1.5-5.1,1.6c-8.6,0.1-17.2,0.1-25.8,0
		c-1.9,0-3.6-0.3-5.1-1.5c-0.3,0-0.5-0.1-0.8-0.1c-1.4-0.9-2.8-1.5-4.6-1.5c-6.9,0.1-13.9,0.1-20.8,0c-1.8,0-3.3,0.4-4.5,1.6
		l-0.4-0.1c-3.1,2.3-6.7,1.3-10.1,1.5c-3.3,0.1-6.6,0-9.9,0.1c-2.1,0.1-4,0.5-4.4,3c-0.1,1.1,0,2.1-0.1,3.2c0,1.1,0,2.1,0,3.2
		c0,1.6,0,3.2,0,4.8c0,1.1,0,2.1,0,3.2c0,1.1,0,2.1,0,3.2c0.1,1.1,0,2.2,0,3.3c0.1,2,0,4,0,6c-0.1,2.9,0.8,6-1.4,8.6
		c-1.3-1-1-2.4-1-3.7c0-14.8,0.1-29.5,0.1-44.3c4,1.5,8.1,1.4,12.2,1.4c23.3-0.1,46.5,0.1,69.8-0.1
		C343.5,371.3,345.1,371.6,346.8,371.6z"/>
	<path class="st4" d="M346.8,371.6c-2.5,1.2-5.3,1.4-8,1.3c-24.4,0-48.7,0-73.1,0c-2.6,0-4.9-0.2-5.9-3c0-0.3-0.1-0.6-0.1-1
		c1.7-1.1,3.6-0.5,5.3-0.5c22.4,0,44.8,0,67.1,0c1.8,0,3.6,0.3,5.4-0.3C341.1,368.3,344,369.8,346.8,371.6z"/>
	<path class="st5" d="M371.7,413.8c-0.3-0.9-1-0.9-1.8-0.9c-1.7-1.6-5.3-2.6-2-5.9c9.6-1.2,19.2-0.5,28.9-0.4c1.2,0,2.2,0.6,3.2,1.3
		c1.1-0.1,2.1-0.3,2.7,1c1.5,1.7,3.4,1,5.2,1c10.8,0.1,21.6,0,32.5,0c6.5,0,7,0.6,5.4,7.3c-1.6-1.5-3.3-2.6-5.7-2.6
		c-21.6,0.1-43.2-0.5-64.8,0.3C374,414.6,372.7,414.7,371.7,413.8z"/>
	<path class="st4" d="M185.8,372.9c-0.1-1.1-0.1-2.3,0.9-3.1c16.7-2.9,33.5-0.9,50.2-1.3c7.3-0.2,14.6-0.8,21.8,0.5
		c-0.5,2.6,1.3,5.5-1.1,7.8c-0.4-0.4-0.6-0.9-0.8-1.4c-0.2-1.2-0.9-1.3-2.1-1.3c-20.5,0.7-41.1,0.2-61.6,0.3
		C190.5,374.4,188,374.4,185.8,372.9z"/>
	<path class="st6" d="M374.5,414c2.7-0.9,5.5-1.1,8.3-1.1c19.4,0.1,38.8,0.1,58.1,0c3.2,0,5.1,0.6,4.8,4.3c-0.4,0.3-0.7,0.5-1,0.8
		c-4.9-1.2-9.8-0.4-14.8-0.5c-8.8-0.1-17.5,0-26.3,0c-7.7-0.3-15.5,0.7-23.1-0.5l-0.2-0.2l-0.3,0C377.8,416.5,375.4,416.7,374.5,414
		z"/>
	<path class="st3" d="M364.6,376c2-0.2,3.1-1.6,4.2-3.1c2.2,0.2,3.9-1.2,5.8-2c7.9-0.6,15.8-0.6,23.8-0.3c0.9,0.7,0.8,1.5,0.3,2.4
		c-0.3,0.3-0.6,0.7-0.9,1c-0.4,4.6-3.3,5.7-7.4,5.5c-7.9-0.4-15.9,0.6-23.8-0.6C365.3,378.4,364.4,377.6,364.6,376z"/>
	<path class="st6" d="M177.5,417.9c0.2-2.5,1.1-4.9,2.2-7.1c7.9,1,15.8,1,23.8,0.9c2,0,4-0.3,5.6,1.4c0.1,1.4,0.6,2.9-0.5,4.2
		c-7.9,0.4-15.8,0-23.6,0.2c-1.6,0-3.3-0.6-4.8,0.6c-0.2,0.3-0.4,0.6-0.5,0.9C178.9,418.6,178.2,418.3,177.5,417.9z"/>
	<path class="st7" d="M162.7,331.1c2.8,3.2,0.4,6-0.9,8.6c-1.8,3.7-4.9,6.6-6.4,10.5c-0.9,2.3-2.3,1-3.6,0.6
		c-1.6-0.5-2.1-1.3-1.4-2.9c0.4-0.9,0.7-1.9,1-2.8c3.1-4.3,6.8-8.1,8.6-13.2C160.7,330.3,161.6,330.6,162.7,331.1z"/>
	<path class="st6" d="M344.6,413.9c-0.9,1.3-2.9,1.2-3.5,2.9c-4.2,0.5-8.5,0.7-12.7,0.6c-4.9,0.3-9.9-0.7-14.8,0.6
		c-0.7,0-1.3,0-2-0.1c0.2-1.9,1.4-3.1,2.8-4c1.2-1.4,2.8-2.3,4.7-2.4c6.9-0.2,13.9-0.3,20.8,0.1
		C341.8,411.6,343.6,412.2,344.6,413.9z"/>
	<path class="st8" d="M258.7,388c-0.5,2.2,1.1,4.8-1.1,6.7c-0.4-0.4-0.6-0.8-0.8-1.3c-0.3-0.7-0.4-1.5-0.8-2.2
		c-1.6-1.3-3.5-0.7-5.3-0.7c-9.8-0.1-19.6,0-29.3,0c-2.1,0-4.3,0.2-6.3-1c-0.9-0.7-0.8-1.6-0.4-2.5l0.4,0c0.6-0.4,1.2-0.5,1.9-0.5
		c12.7,0,25.4-0.1,38.1,0C256.3,386.5,257.9,386.3,258.7,388z"/>
	<path class="st9" d="M116.6,431.3c-3.4,11.6-13.8,12.6-23.1,15.2C100.6,440.5,109.6,437.4,116.6,431.3z"/>
	<path class="st10" d="M258.7,369c-20.7,0-41.4,0-62.1-0.2c-3.4,0-6.4,2.8-9.9,1c0.2-1.1-0.4-2.4,0.9-3.2c1.9,2.4,7.6,2,11.1-0.7
		c0.1,0.9-0.1,2,1.4,2c11.3-0.1,22.5-0.2,33.8-0.3c0.2,0,0.4-0.5,0.6-0.7c6.1,2.1,12.3,0.5,18.5,1C255,368.1,257.1,367.2,258.7,369z
		"/>
	<path class="st11" d="M337.6,368.1c-1.6,1.4-3.5,0.8-5.3,0.8c-24.2,0.1-48.4,0.1-72.6,0.1c1.4-1.8,3.4-1,5.1-1
		c8.7-0.1,17.5-0.1,26.2-0.1C306.5,367.9,322.1,368,337.6,368.1z"/>
	<path class="st12" d="M428.4,376c0.3-1.6,1-3,2-4.1c2.7-2,5.8-1.3,8.7-1.3c2.5,0,5-0.3,7.4-0.5c-0.3,2.3,1.1,4.9-1.1,6.9
		C439.8,375.7,434,377.2,428.4,376z"/>
	<path class="st13" d="M398.6,370.9c-8,1.6-16,1.6-23.9,0c3.5-2.8,7.6-1.9,11.5-2c4.5-0.1,9,0,13.5,0
		C400.3,370.1,399.3,370.5,398.6,370.9z"/>
	<path class="st14" d="M260.7,417.9c0-3,0.1-6,0.1-9c2.9-1.9,5.6-2.2,8,1c-0.8,4.2-4.1,6.5-7,9C261.4,418.6,261,418.2,260.7,417.9z"
		/>
	<path class="st15" d="M258.7,388c-1.7-1.3-3.7-1.1-5.7-1.1c-12.7,0-25.4,0-38.1,0c1.5-2,3.6-0.8,5.3-1c6.9-0.6,13.9,1.3,20.5-2
		c3.7,3.8,8.5,1.2,12.6,2C255.3,386.3,258,384.6,258.7,388z"/>
	<path class="st4" d="M446.5,370c-2,2.9-5,1.8-7.7,1.9c-2.8,0.1-5.6,0-8.4,0c0.4-1.5,0.8-3,2.1-4c2.4,2.1,5.3,0.6,8,1.1
		C442.5,369.3,444.8,368,446.5,370z"/>
	<path class="st16" d="M403.5,417c12.7,0,25.4-0.1,38.1-0.1c1.1,0,2.4-0.1,3.1,1c-13.7,0-27.4,0-41,0c-0.3-0.2-0.4-0.4-0.3-0.6
		C403.3,417.2,403.4,417,403.5,417z"/>
	<path class="st17" d="M159.2,317.9c2.3,4.4,0.6,8.6-0.5,14C156.7,326.4,157,322.1,159.2,317.9z"/>
	<path class="st18" d="M257.5,394.4l0,0.4c-8.5,1-17.1,0.1-25.7,0.5c-0.2,0-0.4-0.1-0.6-0.2c0-0.7,0.3-1.3,0.8-1.6
		c7.6-1.6,15.4-0.7,23-0.6C256.1,392.8,257,393.4,257.5,394.4z"/>
	<path class="st19" d="M257.6,376.3c-0.1,0.2-0.1,0.3,0,0.5c-4.9,0.1-9.9,0.2-14.8,0.4c-1.5,0.1-3.4-0.8-4.3,1.4
		c-0.4-0.5-0.7-1.1-1-1.6c-0.1-0.7,0.2-1.2,0.8-1.6C244.7,374.5,251.3,372.8,257.6,376.3z"/>
	<path class="st20" d="M153.9,378.2c-0.7,2.6-2,5-4,6.9c-0.4-1-2.3-1.4-1.1-3c2.2-1.1,2.4-3.6,4-5.1
		C153.7,376.8,154.4,377,153.9,378.2z"/>
	<path class="st21" d="M428.4,376c5.7,0.4,11.5-1.1,17.1,0.9c-5.9,0.7-11.8,0.3-17.6,0.2C428,376.7,428.2,376.3,428.4,376z"/>
	<path class="st22" d="M218.7,305c2.9-2.4,6.8,0.2,9.8-1.9c1.4-0.3,2.4,0.3,4.1,1.9C227.5,305,223.1,305,218.7,305z"/>
	<path class="st23" d="M357.6,354c-1-0.8-2.1-1.4-2.7-3.1c4,0.1,7.2,1.3,9.9,3.9C362.3,355.5,360.4,351.4,357.6,354z"/>
	<path class="st19" d="M313.6,418c5-2.2,10.2-0.6,15.2-0.9c0.4,0.3,0.6,0.6,0.8,1l-0.4,0.3c0,0-0.5,0-0.5,0
		C323.8,418.1,318.7,418.1,313.6,418z"/>
	<path class="st24" d="M231.9,412c1-2.9,3.4-1.6,5.4-1.9c1.5-0.2,3.1,1.9,4.5-0.1c1.3,3.5-1.8,1.9-2.6,1.9
		C236.7,411.6,234.3,410.7,231.9,412z"/>
	<path class="st25" d="M148.6,370.8c0.5-0.9,0.9-1.9,1.4-2.8c1.9,0,1.1,1.2,0.9,2.1c-0.1,1.4,0,2.8-1.1,3.9
		C149.4,373,150,371.5,148.6,370.8z"/>
	<path class="st26" d="M135,378.7c0.3,0.7,0.6,1.4,0.9,2.1c-0.1,1.4-0.5,2.8-2.3,3.8C134,382.6,134.5,380.7,135,378.7z"/>
	<path class="st27" d="M551.8,258.9c-0.7-0.4-1.4-0.7-2.1-1c1.8-1.4,3.8-1,6.3-1.3C554.7,258.4,553.1,258.5,551.8,258.9z"/>
	<path class="st28" d="M362.5,334.2c-2.3,1.1-3.7,1.1-5.4,0.5C358.5,333.2,360,334.2,362.5,334.2z"/>
	<path class="st29" d="M302.4,356.9c-0.4,1-1.1,2.8-2,1.8c-0.8-0.8,0-2.8,1.1-4.1C301.8,355.4,302.1,356.1,302.4,356.9z"/>
	<path class="st30" d="M304.1,351c-0.4-0.4-0.7-0.7-1.1-1.1c0.3-1.1,0.8-2.1,2.3-2.5C305.7,349,305.2,350.1,304.1,351z"/>
	<path class="st31" d="M317.6,378c12,0,24,0,36,0c0.6,1.7,2.5,2.9,2.5,4.9c-1.1,1.3-2.5,1.5-4,1.5c-9.9-0.1-19.9,0.5-29.8-0.3
		c-2.6-0.8-3-3.4-4.4-5.3C317.7,378.5,317.6,378.3,317.6,378z"/>
	<path class="st32" d="M317.8,407.9c0.7-1.7,1.5-3.3,2.2-5c2-1.6,4.3-1.5,6.6-1.5c9.4,0,18.8,0,28.3,0c1.2,0.2,1.3,1.1,1.2,2.1
		c-1.6,2.1-2.5,4.9-5.5,5.6c-9.6,0.8-19.2,0.3-28.7,0.3C320.3,409.4,318.8,409.2,317.8,407.9z"/>
	<path class="st5" d="M317.8,407.9c11.4,0,22.7,0,34.1,0.1c0.2,0.4,0.2,0.8-0.1,1.2c-1.9,1.8-3.3,4.3-6.3,4.6l-0.5,0l0,0
		c-0.1,0.1-0.8,1.1-1.4,1.6c-0.1,0.1-0.2,0.1-0.2,0.1c-0.2,0.1-0.5,0.3-0.9,0.4c0,0-0.4,0.1-0.8,0.1c-1.4-0.1-13.5-2.8-17.3-3.3
		c-2.3-0.3-5.6-0.3-9.8,1C315.6,411.9,316.7,409.9,317.8,407.9z"/>
	<path class="st31" d="M260.7,382.9c-0.6-3.8,0.8-5.3,4.9-5.1c7,0.3,13.9,0.1,20.9,0c-0.9,1.7-1.8,3.4-2.7,5.1
		C276.1,385.3,268.4,385.4,260.7,382.9z"/>
	<path class="st33" d="M356.8,385.9c0.3,0.4,0.6,0.7,0.9,1.1c0.6,1.9,0.9,3.7-0.3,5.5c-2.1,1.3-4.5,0.9-6.8,0.9
		c-7.6,0-15.2,0-22.8,0c-2.1,0-4.3,0.3-6.1-1.4c0-1,0-2,0-3c2.3-1.9,5-1.6,7.6-1.5c7.2,0.2,14.3,0.1,21.5,0.1c1.8,0,3.7,0.4,5.1-1.3
		C356.2,386.1,356.5,386,356.8,385.9z"/>
	<path class="st34" d="M355.6,401.9c-1.9,1.3-4.1,1-6.3,1c-9.8,0-19.6,0-29.4,0c0.5-2,1-4.1,1.6-6.1c0.3,0.1,0.5,0.2,0.8,0.3
		c1.5,1.7,3.6,1.3,5.6,1.3c9.4,0.1,18.9-0.1,28.3,0.1C357.9,400,356.9,401,355.6,401.9z"/>
	<path class="st35" d="M320.8,382.9c11.7,0,23.4,0,35.2-0.1c0.9,0.8,0.8,1.9,0.8,3l-0.3,0.2c-1.1,1.1-2.6,1.4-4.1,1.4
		c-9.1,0.1-18.1,0-27.2,0c-1.4,0-2.6-0.5-3.6-1.4c-0.2,0-0.4-0.1-0.6-0.1C319.8,384.9,320,384,320.8,382.9z"/>
	<path class="st36" d="M321.5,396.8c0.1-1,0.1-1.9,0.2-2.9c0.9-0.8,2.1-1,3.3-1c9.6,0,19.3,0,29,0c1,0,2,0.1,2.8,0.8
		c1.2,2.5,0,4.2-2.2,4.3c-10.5,0.5-21,0.9-31.6-0.2c-0.5-0.1-0.8-0.5-1.2-0.8L321.5,396.8z"/>
	<path class="st8" d="M321.5,386c11.7,0,23.3,0,35,0c0.4,3.1-1.8,2.9-3.8,2.9c-10.3,0-20.7,0-31,0C321.7,388,321.6,387,321.5,386z"
		/>
	<path class="st37" d="M260.7,393.9c0-1.7,0-3.3,0-5c6.9-2.4,13.9-2.4,20.8,0c-1,2.6-2,5.3-2.9,8c-2,0.2-1.7-1.4-1.9-2.6
		c-0.1-0.3,0.5-0.9-0.2-0.8c-0.3,0-0.6,0.7-1,1c-0.5,0.3-0.9,0.4-1.5,0.5C269.6,395.1,265,396.5,260.7,393.9z"/>
	<path class="st38" d="M356.7,393.9c-11.6,0-23.3,0-34.9,0c0-0.7,0-1.3,0-2c11.9,0,23.8,0,35.7,0c0.8,0.5,0.6,1.2,0.4,2
		C357.5,394.2,357.1,394.3,356.7,393.9z"/>
	<path class="st35" d="M260.7,382.9c7.7,0,15.4,0,23.1,0.1c0,1.1-0.2,2.2-1.1,3c-7.3,2.4-14.6,2.4-21.9,0
		C260.7,384.9,260.7,383.9,260.7,382.9z"/>
	<path class="st39" d="M268.7,409.9c-2.5-1.5-5.3-0.9-8-1c0-2,0-4,0-6c4-2.2,7.9-2.3,11.9,0C272,405.6,270.7,407.9,268.7,409.9z"/>
	<path class="st8" d="M260.7,385.9c7.3,0,14.6,0,21.9,0c0.1,1.2-0.4,2.1-1.1,3c-7,0-13.9,0-20.8,0
		C260.7,387.9,260.7,386.9,260.7,385.9z"/>
	<path class="st40" d="M260.8,399.9c0-1,0-2,0-3c4.5-2.4,9.1-1.9,13.8-0.5c0.9,0.8,0.8,1.7,0.2,2.6c-0.3,0.3-0.6,0.6-0.9,0.9
		C269.4,402.1,265.1,402.2,260.8,399.9z"/>
	<path class="st34" d="M260.8,399.9c4.3,0,8.7,0,13,0c0,1.1-0.3,2.1-1.1,2.9c-3.9,0-7.9,0-11.9,0
		C260.8,401.9,260.8,400.9,260.8,399.9z"/>
	<path class="st0" d="M289.2,377c0.4-2,1.9-2,3.4-2c7.6,0,15.2,0,22.8,0c1.5,0,3,0.2,3.7,1.9C309.1,375.6,299.1,375.2,289.2,377z"/>
	<path class="st41" d="M275.7,394c0-0.8,0-1.8,0.8-2.1c1.4-0.5,1,0.7,1.1,1.4c0.1,1.2-0.3,2.6,1,3.6c0.3,1.7-0.3,3.1-1.7,4.6
		c-0.1-1.3-0.3-2.4-0.4-3.4C275.5,396.8,275.4,395.5,275.7,394z"/>
	<path class="st42" d="M365.6,377.9c8.4,0,16.8-0.2,25.1,0.1c3.5,0.1,6-0.5,7-4c-0.3,2.8-0.9,5.6-0.3,8.5c-0.4,0.6-0.8,1-1.4,1.3
		c-10.2,1.2-20.5,0.4-30.8,0.4c-1.2,0-2.3-0.5-3-1.4c0.2-1.3,0.4-2.6,0.6-3.9C363.7,378.3,364.4,377.4,365.6,377.9z"/>
	<path class="st34" d="M397.5,399.1c0.1,1.2,0.1,2.5,0.2,3.7c-0.9,2-2.7,2.4-4.5,2.5c-9.7,0.1-19.4,0.7-29.1-0.4
		c-2.6-1.4-3.2-3.5-2.5-6.2c11.4-0.6,22.8-0.1,34.3-0.3C396.6,398.5,397.1,398.7,397.5,399.1z"/>
	<path class="st43" d="M363.5,404c9.5,0,19,0,28.4,0c2,0,4,0,5.8-1.1c1.2,1.5,2,3,2.2,4.9c-11.1,0-22.3,0.1-33.4,0.1
		C364,407.7,363.5,406.1,363.5,404z"/>
	<path class="st44" d="M158.6,361c-2.4-3-0.5-5.3,0.8-8.1c2.6-5.8,6.7-10.6,8.9-16.9c1.6-4.8,7-9.3,11.8-12.9
		c0.4-0.3,0.9-0.4,1.3-0.8c2.3-2.5,5.1-5,8.2-5.2c2.9-0.2,3.2,4.4,5.9,5.7c-4.3,2.1-7.6,5.2-10.6,8.8c-3.1,3.7-6.5,7.1-11.4,8.5
		c-2.7,0.7-2.2,2.3-1.3,4.2c1,2.3,3.3,3.1,5.3,4.6c-3.6,2.5-7,4.9-10.4,7.2c-0.4,0.3-1.1,0.8-1.3,0.6
		C160.2,353.1,160.8,359.5,158.6,361z"/>
	<path class="st3" d="M215.7,376.2c-1.7-0.2-2.7,1.3-4.1,1.7c-1.6,1.2-3.6,1.6-5.6,1.6c-5.4,0-10.8,0.1-16.2,0c-1.8,0-3.6,0-5-1.5
		c0-1.7-0.2-3.5,1-5c22,0,44,0,65.9,0c2.1,0,4.4,0.6,5.8-3.2c0,3,0,4.8,0,6.6c-6.6-0.7-13.3-0.4-20-0.2
		C230.3,376.1,223,376.2,215.7,376.2z"/>
	<path class="st45" d="M166,372.1c-3.4-4.6-1.5-8.2,2.1-11.6c4.5-4.2,9.1-8.2,14.9-10.5c1.8-0.7,3.8-1.8,5.4,0.3
		c1.6,2.1,1.4,4.4,0.1,6.5c-1.8,3.2-4.9,4.8-8,6.4C175.5,365.9,170,367.9,166,372.1z"/>
	<path class="st46" d="M208.6,402.9c0,1.7,0,3.3,0,5c-1.6,1.5-3.6,1.5-5.6,1.5c-7.7,0.1-15.4-0.2-23.1,0.5c-0.2-2.4-0.2-4.8,1-7
		c1.1-1.1,2.6-1.4,4.1-1.5c6.5-0.1,13-0.1,19.5,0C206,401.5,207.4,401.7,208.6,402.9z"/>
	<path class="st47" d="M179.9,409.9c1.3-1.9,3.2-2,5.3-2c7.8,0.1,15.6,0,23.4,0c0,1.7,0,3.3,0,5c-8.9,0.3-17.7,0.3-26.6-0.4
		c-1.5-0.1-2.1-0.4-2.3-1.8C179.6,410.5,179.6,410.2,179.9,409.9z"/>
	<path class="st42" d="M184.8,377.9c8.9,0,17.9,0,26.8,0c-0.1,0.3-0.1,0.6-0.2,0.8c-1.6,0.9-2,2.7-2.8,4.2c-1.1,1.1-2.5,1.4-4,1.5
		c-5.6,0.1-11.1,0-16.7,0c-1.5,0-2.9-0.3-4.1-1.5C183.8,381.2,183.5,379.4,184.8,377.9z"/>
	<path class="st48" d="M167.5,388.1c-0.5,3.2-1.6,6.4-0.7,9.8c0.5,2.1-1.2,3.3-2.8,4.3c-3.7,2.4-7.7,3.5-12.7,3.8
		c6.5-6,10.9-12.9,15.2-20C168.4,386,167.9,387.1,167.5,388.1z"/>
	<path class="st34" d="M208.6,402.9c-9.2,0-18.5,0-27.7,0c0-1.8-0.5-3.7,0.7-5.4c6.6,1.9,13.4,0.5,20,0.9c2.4,0.1,5-0.4,7,1.5
		C208.6,400.9,208.6,401.9,208.6,402.9z"/>
	<path class="st49" d="M208.6,399.9c-7.5,0-14.9,0-22.4,0c-1.9,0-4.2,0.5-4.6-2.4c-0.1-0.2-0.1-0.5,0.1-0.6c1.2-1,2.6-1.4,4.1-1.5
		c6.3-0.1,12.5-0.1,18.7,0c1.5,0,2.9,0.3,4.1,1.5C208.6,397.9,208.6,398.9,208.6,399.9z"/>
	<path class="st50" d="M208.6,385.9c0,1,0,2,0,3c-1.1,1.2-2.6,1.4-4.1,1.5c-5.8,0.1-11.6,0.1-17.5,0c-1.5,0-3-0.3-4.1-1.5
		c-0.1-1.8-0.3-3.6,0.8-5.2c6.1,1.4,12.2,0.3,18.3,0.7C204.2,384.7,206.6,384.2,208.6,385.9z"/>
	<path class="st36" d="M208.6,396.9c-9,0-17.9,0-26.9,0c0-0.3,0-0.7,0.1-1c0.7-1.7,1.6-3.2,3.8-3.3c6.9-0.1,13.9-0.4,20.9,0.1
		c0.9,0.1,1.6,0.5,2.2,1.1C208.6,394.9,208.6,395.9,208.6,396.9z"/>
	<path class="st51" d="M182.8,388.9c8.6,0,17.1,0,25.7,0c0,1,0,2,0,3c-4.3,2-8.8,0.7-13.1,1c-3.1,0.2-6.3,0.1-9.4,0
		c-1.5-0.1-3.5,0.3-3.4-2.3C182.6,390,182.7,389.5,182.8,388.9z"/>
	<path class="st35" d="M208.6,385.9c-6.9,0-13.8,0-20.7,0c-1.7,0-3.8,0.5-4.2-2.1c-0.1-0.3-0.1-0.6,0.2-0.8c8.3,0,16.5,0,24.8,0
		C208.6,383.9,208.6,384.9,208.6,385.9z"/>
	<path class="st38" d="M182.6,390.6c1.3,1.9,3.3,1.3,5,1.3c7,0.1,14,0,21,0c0,0.7,0,1.3,0,2c-7.2,0-14.4,0.1-21.7,0
		c-2.1,0-3.8,0.4-5.2,2C181.8,394.1,181.4,392.2,182.6,390.6z"/>
	<path class="st52" d="M163.4,381.8c0.9-2.7,1.8-5.5,3.9-8.5c0.5,3.8-0.8,6.3-2.3,8.7C164.4,382.4,163.9,382.3,163.4,381.8z"/>
	<path class="st53" d="M150.9,370.2c-0.3-0.7-0.6-1.4-0.9-2.1c0.6-2.1,1.1-4.1,1.7-6.2c0.3,0.7,0.6,1.4,1,2
		C152,366,151.5,368.1,150.9,370.2z"/>
	<path class="st54" d="M163.4,381.8c0.5,0.1,1.1,0.1,1.6,0.2c-0.5,1.8-1,3.6-2.2,5.1c-0.3-0.7-0.7-1.4-1-2.1
		C162.3,383.9,162.9,382.9,163.4,381.8z"/>
	<path class="st55" d="M153.9,378.2c-0.4-0.4-0.8-0.8-1.1-1.3c0.2-1.3,0.9-2.3,2.5-3.7C155.4,375.6,154.9,377,153.9,378.2z"/>
	<path class="st0" d="M195,320.9c0.9-0.8,2.1-1,3.3-0.8c-0.3,1.2-1,1.7-2.2,1.9C195.7,321.6,195.3,321.3,195,320.9z"/>
	<path class="st33" d="M396.5,388.9c0,1,0,2,0,3c-1,1-2.3,1.3-3.6,1.3c-9.9,0.1-19.7,0.2-29.6-0.1c-0.8,0-1.6-0.3-2.3-0.8
		c-1.3-1.8-0.9-3.6-0.3-5.5c0.3-0.4,0.6-0.7,0.9-1.1c0.3,0.1,0.5,0.2,0.8,0.4c1.4,1.6,3.3,1.3,5.1,1.3c7.6,0,15.3,0,22.9,0
		C392.5,387.5,394.7,387.3,396.5,388.9z"/>
	<path class="st35" d="M396.8,383c-0.1,1-0.1,2-0.2,2.9c-1.3,1.2-2.9,1.5-4.6,1.5c-8.5,0-17.1,0-25.6,0c-1.7,0-3.3-0.1-4.6-1.4
		l-0.3-0.2c0-1.1,0-2.1,0.8-3C373.8,382.9,385.3,382.9,396.8,383z"/>
	<path class="st0" d="M332,417c-0.3-0.3-0.6-0.6-0.8-1c0.6,0.2,1.6,0.4,2.8,0.5c1.4,0.1,2.5,0,4.9-0.3c1.4-0.1,3.8-0.4,4.6-0.5
		C341.9,416.3,340.1,416.7,332,417z"/>
	<path class="st36" d="M275.7,393.9c0,1.1,0,2.2-0.9,3c-4.7,0-9.4,0-14.1,0c0-1,0-2,0-3C265.7,393.9,270.7,393.9,275.7,393.9z"/>
	<path class="st33" d="M214.9,391.9c0-1,0-2,0-3c12.8,0,25.6,0,38.4,0c2.1,0,4.6-0.5,4.4,3c-1.1,0.9-2.4,1-3.8,1
		c-11.8,0-23.5,0-35.3,0C217.3,392.9,216,392.9,214.9,391.9z"/>
	<path class="st38" d="M214.9,391.9c14.3,0,28.5,0,42.8,0c-0.1,0.8-0.1,1.6-0.2,2.4c-8.6-0.8-17.3-0.4-26-0.2
		c-5.6-0.1-11.1-0.1-16.7-0.2C214.8,393.2,214.9,392.6,214.9,391.9z"/>
	<path class="st49" d="M357.5,393.9c0.3,1.8,0,3.4-0.9,5c-3.1,1.8-6.5,0.9-9.7,1c-7.1,0.1-14.2,0-21.3,0c-2,0-4.2,0.2-3.8-2.9
		c10.2,0,20.3,0,30.5-0.1c2.1,0,4.6,0.5,4.4-3C356.9,393.9,357.2,393.9,357.5,393.9z"/>
	<path class="st49" d="M361.7,398.9c-1-1.5-1.1-3.3-0.9-5c0.6-0.3,1.1-0.2,1.7,0.2c1.4,1.7,3.3,1.3,5.1,1.3c7.6,0,15.3,0,22.9,0
		c2.1,0,4.4-0.2,6.1,1.5c0.1,0.6,0.1,1.2,0.2,1.8c-0.2,0.2-0.4,0.7-0.7,0.7C384.6,400,373.1,400.8,361.7,398.9z"/>
	<path class="st8" d="M361.8,386c11.6,0,23.2,0,34.8-0.1c0,1,0,2-0.1,3c-10.3,0-20.6,0-30.9,0C363.6,388.9,361.4,389.2,361.8,386z"
		/>
	<path class="st36" d="M396.6,396.9c-10.2,0-20.4,0-30.6,0c-2.1,0-4.5,0.4-4.3-3c0.9-1,2.1-1,3.2-1c9.5,0,18.9,0,28.4,0
		c1.2,0,2.3,0.1,3.3,1C396.5,394.9,396.5,395.9,396.6,396.9z"/>
	<path class="st38" d="M396.5,393.9c-11.6,0-23.2,0-34.8,0c-0.3,0-0.6,0-0.8,0c0-0.7,0-1.3,0-2c11.9,0,23.8,0,35.7,0
		C396.5,392.6,396.5,393.3,396.5,393.9z"/>
</g>
<path class="st0" d="M326.6,445.3"/>
<path class="st5" d="M-162.1,614.3"/>
<path class="st5" d="M-160.7,612.2"/>
<path class="st5" d="M-158.8,612.4"/>
</svg>
