<?xml version="1.0" encoding="utf-8"?>
<!-- Generator: Adobe Illustrator 24.0.0, SVG Export Plug-In . SVG Version: 6.00 Build 0)  -->
<svg version="1.1" id="Calque_1" xmlns="http://www.w3.org/2000/svg" xmlns:xlink="http://www.w3.org/1999/xlink" x="0px" y="0px"
	 viewBox="0 0 612 792" style="enable-background:new 0 0 612 792;" xml:space="preserve">
<style type="text/css">
	.st0{fill:#FEFEFE;}
	.st1{fill:#A50000;}
	.st2{fill:#A50101;}
	.st3{fill:#FDFCFC;}
	.st4{fill:#CFCFCF;}
	.st5{fill:#D3D3D3;}
	.st6{fill:#A2A2A2;}
	.st7{fill:#9F9F9F;}
	.st8{fill:#A70606;}
	.st9{fill:#C0C0C0;}
	.st10{fill:#A80909;}
	.st11{fill:#F3F2F2;}
	.st12{fill:#F3F3F3;}
	.st13{fill:#D0D0D0;}
	.st14{fill:#D4D4D4;}
	.st15{fill:#A09F9F;}
	.st16{fill:#EEEEEE;}
	.st17{fill:#EBDCDC;}
	.st18{fill:#6F6F6F;}
	.st19{fill:#AF2424;}
	.st20{fill:#707070;}
	.st21{fill:#490101;}
	.st22{fill:#717171;}
	.st23{fill:#E5D6D6;}
	.st24{fill:#757373;}
	.st25{fill:#D08D8D;}
	.st26{fill:#DAC7C7;}
	.st27{fill:#E8CECE;}
	.st28{fill:#D1ADAD;}
	.st29{fill:#DCC6C6;}
	.st30{fill:#B12A2A;}
	.st31{fill:#BD4E4E;}
	.st32{fill:#D08282;}
	.st33{fill:#E7D9D9;}
	.st34{fill:#B84848;}
	.st35{fill:#700303;}
	.st36{fill:#C9C9C9;}
	.st37{fill:#A9A8A8;}
	.st38{fill:#BCBCBC;}
	.st39{fill:#ADADAD;}
	.st40{fill:#C4C4C4;}
	.st41{fill:#B5B5B5;}
	.st42{fill:#BBBBBB;}
	.st43{fill:#B9B9B9;}
	.st44{fill:#A8A7A7;}
	.st45{fill:#B1B0B0;}
	.st46{fill:#860000;}
	.st47{fill:#4A0101;}
	.st48{fill:#4A0202;}
	.st49{fill:#AEA9A9;}
	.st50{fill:#7E0101;}
	.st51{fill:#880000;}
	.st52{fill:#5B0000;}
	.st53{fill:#731717;}
	.st54{fill:#C9C8C8;}
	.st55{fill:#A8A6A6;}
	.st56{fill:#870808;}
	.st57{fill:#E4DADA;}
	.st58{fill:#FDFDFD;}
	.st59{fill:#FCFBFB;}
	.st60{fill:#A8A8A8;}
	.st61{fill:#A3A2A2;}
	.st62{fill:#F7F4F4;}
	.st63{fill:#B1B1B1;}
	.st64{fill:#C0BFBF;}
	.st65{fill:#BCBBBB;}
	.st66{fill:#DEC8C8;}
	.st67{fill:#D4ABAB;}
	.st68{fill:#E3D4D4;}
	.st69{fill:#DECCCC;}
	.st70{fill:#910000;}
	.st71{fill:#8C0000;}
	.st72{fill:#6E0B0B;}
	.st73{fill:#6D0909;}
	.st74{fill:#7C1111;}
</style>
<g>
	<path class="st0" d="M306.56,533.91c-85.27,0-170.53-0.02-255.8,0.08c-3.49,0-4.76-0.37-4.75-4.43
		c0.15-89.08,0.14-178.16,0.01-267.24c-0.01-3.66,0.82-4.32,4.37-4.32c170.7,0.11,341.4,0.1,512.1,0.03c3.21,0,4.52,0.16,4.52,4.17
		c-0.17,89.25-0.15,178.49-0.03,267.74c0,3.46-0.74,4.07-4.12,4.07C477.42,533.88,391.99,533.91,306.56,533.91z"/>
	<path class="st1" d="M211.19,428.26c1.63,6.01,5.6,10.45,9.84,14.71c-0.56,2.51-2.3,1.41-3.59,1.03c-2.3-0.68-4.41-0.9-6.24,1.01
		c2.07,5.82,6.11,8.11,13.51,8.12c1.46,0,5.41-2.44,3.76,2.75c-0.5,1.56,1.64,1.09,2.57,0.94c3.81-0.62,7.28-2.04,10.02-4.89
		c1.43-3.51,5.19-5.47,6.17-9.28c1.52-2.1,3.08-4.18,3.77-6.75c0.39-1.05,0.84-2.08,1.42-3.04c0.38-0.59,0.84-1.1,1.39-1.54
		c0.8-0.49,1.61-1,2.53-0.24c0.71,1.05,0.26,2.12,0.05,3.11c0.58-1.38,0.67-2.91,0.56-4.46c0.32-2.82,1.74-5.22,2.9-7.72
		c0.43-1.03,0.91-2.04,1.38-3.06c0.47-1.02,0.78-2.11,1.19-3.16c0.95-1.96,1.72-4.04,3.48-5.5c0.43-0.33,0.9-0.59,1.4-0.8
		c9.27-1.38,18.54-1.41,27.8,0.01c0.52,0.13,1.01,0.35,1.47,0.63c0.43,0.27,0.79,0.63,1.06,1.06c1.15,2.27,1.71,4.83,3.29,6.9
		c0.29,0.37,0.54,0.77,0.74,1.19c0.36,0.89,0.48,1.83,0.52,2.78c0.05,0.95,0.05,1.91,0.05,2.86c0.02,0.72,0.01,1.45-0.03,2.17
		c-0.04,0.97-0.18,1.93-0.41,2.87c-0.63,2.05-0.67,4.24-1.44,6.26c-0.57,1.78-1.42,3.44-2.24,5.12c-1,2.03-2.25,3.92-3.48,5.81
		c-1.01,1.48-2.36,2.64-3.7,3.81c-8.86,12.23-17.44,24.67-26.64,36.64c-10.1,13.14-22.19,24.05-38.99,27.71
		c-34.37,7.48-63.35-7.21-70.66-43.65c-0.37-1.85-0.45-3.54,0.12-5.36c1.47-4.74,2.79-9.53,4.16-14.3
		c-0.22-0.66-0.04-1.19,0.53-1.59c4.8-1.69,9.77-0.48,14.64-0.84c4.06-0.3,8.2,0.66,12.18-0.68c1.72-1.35,1.36-3.27,1.37-5.05
		c0.04-7.6,0.03-15.21,0.01-22.81c-0.01-3.23,0.53-6.25,2.58-8.86c1.49-1.57,3.35-2.52,5.37-3.18c6.76-0.58,13.52-0.65,20.28,0.01
		c1.34,0.36,1.56,1.54,1.89,2.63c0.78,1.79,1.55,3.57,2.33,5.36c-1.42,3.44-4.64,3.1-7.42,3.27c-5.42,0.33-10.87-0.06-16.29,0.21
		c-0.45,0.12-0.88,0.31-1.26,0.58c-1.03,2.03-1.8,4.01,0.83,5.48c4.69,0.45,9.43-0.5,14.09,0.6
		C210.57,427.37,210.95,427.74,211.19,428.26z"/>
	<path class="st1" d="M528.81,292.95c-3.67,1.97-7.25,4.09-10.25,7.02c-0.99,0.96-3.01,1.61-2.3,3.36c0.58,1.42,2.39,0.68,3.63,0.73
		c9.26,0.32,18.11-2.05,27-4.19c1.57-0.38,3.07-1.37,5.44-0.13c-7.3,5.72-15.75,7.59-25.65,10.08c7.68,1.94,13.99,3.46,18.98,8.18
		c-3.69-0.31-7.37-0.92-11.06-0.89c-21.61,0.2-41.94,6.36-61.91,13.82c-20.64,7.71-36.04,21.64-46.41,41
		c-5.09,9.5-9.61,19.31-14.38,28.98c-0.49,1.37-0.37,2.92-1.25,4.17c-0.71,1.26-1.25,2.62-2.1,3.8c-0.42,0.45-1.07,0.61-1.39,1.18
		c-4.72,9.06-9.94,17.84-14.91,26.76c-2.52,4.52-5.52,6.06-10.28,5.05c-1.29,0.27-2.47,0.08-3.45-0.9
		c-1.08-1.75-1.77-3.66-2.49-5.58c-0.38-1.34-0.4-2.72-0.44-4.1c-0.02-4.95-0.01-9.89-0.02-14.84c-0.05-2.81-0.13-5.63,0.35-8.42
		c0.2-0.77,0.54-1.49,0.97-2.16c0.77-1.54,2.13-2.7,2.9-4.25c1-3.87,3.29-7.04,5.35-10.48c2.26,1.66-1.12,3.31,0.59,5.06
		c2.39-2.07,3.74-4.78,5.29-7.34c11.31-18.73,22.92-37.27,38.1-53.2c3.1-3.25,5.88-7.14,10.68-8.32c0.64,0.49,0.67,1.11,0.42,1.81
		c-1.7,1.71-3.72,3.14-4.86,5.37c-0.54,0.56-1,1.21-1.73,1.56c3.75-2.32,6.2-6.42,10.62-7.83c19.09-15.24,38.78-29.67,59-43.37
		c4.97-3.37,9.93-6.76,15.42-9.5c-5.58,7.2-12.4,13.13-18.38,20.88c5.73-0.85,10.13-3.08,14.72-4.79c0.71-0.27,3.01-2.89,3.05,0.8
		c-0.51,0.8-1.44,1.25-1.86,2.13c0.96-1.44,2.68-0.42,3.85-1.17c2.22-0.44,4.44-0.87,6.66-1.31
		C527.69,291.69,528.89,291.03,528.81,292.95z"/>
	<path class="st1" d="M128.03,415.11c0.37-2.67,0.74-5.34,1.11-8.01c0.89-1.32,0.2-2.73,0.26-4.1c0.39-2.08,0.92-4.12,1.58-6.13
		c0.48-1.31,0.89-2.65,1.37-3.96c1.61-3.26,2.78-6.53,7.76-6.22c3.08,0.19,5.46-2.87,8.06-4.6c1.28-0.85,0.16-1.62-0.38-2.43
		c-3.84-5.73-3.66-6.36,2.44-9.66c3.56-1.92,6.51-4.53,8.94-7.77c2.85-3.79,6.35-6.75,11.02-8.1c0.78-0.08,1.54,0.02,2.26,0.34
		c0.74,0.45,1.1,1.12,1.1,1.98c-5.42,7.18-5.09,15.1-2.47,23.04c2.39,7.25,0.43,13.62-2.89,19.91c-0.45,1.14-0.9,2.28-1.28,3.45
		c-0.39,1.1-0.66,2.24-0.91,3.39c-0.43,1.57-0.71,3.16-0.96,4.76c-0.38,1.58-0.74,3.16-0.92,4.78c-0.06,0.46-0.17,0.91-0.29,1.36
		c-0.55,1.54-0.55,3.15-0.63,4.75c-0.04,0.69-0.17,1.37-0.35,2.04c-0.53,1.53-0.62,3.11-0.64,4.71c-0.01,0.47-0.07,0.93-0.14,1.39
		c-0.07,0.46-0.18,0.92-0.31,1.37c-0.54,1.58-0.44,3.26-0.74,4.87c-0.55,2.13-0.68,4.31-0.85,6.49c-0.05,0.5-0.16,0.99-0.3,1.47
		c-0.94,2.27-0.62,5.13-3.07,6.72c-2.16,2.52-4.03,5.37-6.54,7.48c-4.44,3.75-6.66,7.66-2.53,12.89c-3.89,0.93-6.32-5.44-10.12-1.21
		c-2.88,3.21-0.15,7.08-0.83,10.64c-2.35,0.37-3.04-1.74-4.28-2.86c-2.76-2.48-4.52-2.1-5.43,1.46c-1.15,4.48-0.88,9.12-1.14,15.13
		c-1.7-4.13-2.77-7.02-4.09-9.78c-0.47-0.98-0.47-3.08-2.46-2.32c-1.62,0.62-2.76,1.83-2.13,3.91c0.81,2.7,1.14,5.45,0.63,8.29
		c-0.37-0.11-0.83-0.12-0.9-0.3c-3.36-7.81-3.39-7.85-9.96-2.17c-6.14,5.32-12.18,10.74-18.79,15.78
		c11.18-17.02,24.3-32.94,29.68-53.72c-4.69,0.01-6.83,3.31-9.73,5.19c-2.45,1.59-5.45,5.59-7.21,4.15
		c-2.18-1.79,1.87-4.44,2.93-6.85c3.04-6.88,1.86-9.99-4.85-11.57c-11.85-2.79-12.12-2.75-24.41,3.01c-1,0.47-1.91,1.5-3.19,0.65
		c3.65-6.8,5.86-8.7,16.64-14.23c-5.11-7.49-12.1-13.21-18.13-19.8c-4.84-5.3-9.54-10.68-12.42-17.35
		c-3.19-7.38-3.55-14.84-0.79-22.49c1.45,0.46,1.29,1.2,1.18,1.76c-1.91,9.57,0.9,18.04,6,26c6.56,10.22,15.9,17.84,24.47,26.16
		c0.84,0.81,1.7,1.59,2.54,2.4c4.02,3.93,5.66,3.85,7.98-1.15c1.58-3.4,4.16-4.35,6.77-2.63c7.11,4.67,12.57,1.54,17.99-2.91
		c2.2-1.81,4.07-3.89,5.47-6.39c0.59-2.65,2.24-4.82,3.26-7.26c0.07-0.33,0.68-0.49,0.33-0.99c0.01,0.3-0.09,0.56-0.34,0.8
		C131.16,412.39,131.18,415.32,128.03,415.11z"/>
	<path class="st1" d="M336.94,387.05c5.42,5.3,9.58,11.35,11.23,18.9c0.12,2.56-1.49,3.47-3.66,3.84c-3-0.84-1.95,1-1.57,2.4
		c0.2,1.17,0.14,2.33-0.16,3.48c-0.32,1.13-0.73,2.23-1.19,3.31c-0.27,0.65-0.58,1.28-0.87,1.91c-1.47,9.4,0.07,17.74,8.3,23.73
		c0.88,0.31,1.71,0.73,2.44,1.32c2.52,2,5.18,3.62,8.6,3.31c0.54,0.01,1.05,0.09,1.57,0.21c5,0.23,10-0.01,14.99,0.14
		c1.92,0.06,4.09-0.41,5.38,1.72c-5.55,7.74-11.9,14.72-19.81,20.13c-14.48,9.91-32.81,7.53-44.56-5.62
		c-3.92-4.39-6.62-9.51-9.45-14.57c0.12-0.22,0.24-0.44,0.36-0.66c3.17-1.86,6.87-0.18,10.11-1.53c1.73-0.62,3.15-1.83,4.85-2.5
		c0.42-0.15,0.85-0.24,1.29-0.31c3.08-0.46,4.58-3.04,6.59-4.93c1.26-1.31,2.16-2.85,2.99-4.45c2.32-5.1,2.91-10.39,1.89-15.88
		c-0.31-0.61-0.59-1.23-0.85-1.86c-0.43-1.01-0.75-2.07-1.15-3.09c-0.53-1.65-1.69-2.95-2.5-4.44c-1.78-2.39-4.38-3.88-6.47-5.92
		c-3.2-2.17-6.85-2.89-10.6-3.32c-12.63,0.01-25.24,0.05-37.85-0.02c-2.25-0.01-4.72,0.55-6.54-1.5c2.69-5.93,6.01-11.51,9.7-16.86
		c0.93-0.2,1.46-0.01,1.06,1.09c-0.08,0.86-0.17,1.72-0.25,2.57c0.17,0.8-1.58,2.41,0.93,2.24c6.2-8.68,12.91-16.84,22.89-21.95
		c-1.44,2.19-2.87,4.39-4.82,7.36c10.53-2.86,19.81-8.17,30.4-7.3c-2.7,1.63-5.86,2.1-8.66,4.6c3.17,0.52,6.01,0.83,8.77,1.47
		c7.18,1.65,12.67,5.63,16.16,12.2c0.44,0.82,1.14,1.93-0.15,2.46c-0.53,0.22-1.45-0.53-2.2-0.84c-2.02-0.99-3.86-2.39-6.2-2.62
		C336.3,385.13,336.51,386.03,336.94,387.05z"/>
	<path class="st1" d="M144.31,346.11c3.79-6.59,8.3-12.45,16.36-16.04c-1.86,4.52-6.07,7.35-4.39,12.71
		c10.69-6.93,19.82-16.67,33.93-17.16c-2.21,3.27-6.75,4.05-8.17,8.54c8.89-0.11,17.43,0.14,25.81,2.03
		c-0.35,2.54-2.3,1.01-3.48,1.28c-2.06,0.46-4.29-0.52-6.33,0.58c-0.65,0.13-1.34,0.17-1.94,0.42c-1.7,0.71-3.95,1.59-3.74,3.52
		c0.26,2.34,2.7,1.01,4.14,1.18c10.2,1.24,18.54,5.54,24.4,14.33c-5.16-1.65-9.97-4.75-16.3-2.96c6.95,4.62,12.96,9.59,17.11,17.36
		c-3.95-0.57-6.92-2.6-10.79-1.07c5.59,6.02,9.59,12.76,12.52,21.25c-3.33-1.46-6.42-2.91-8.78,0c-1.91,2.36-2.27,5.11-0.69,7.91
		c-0.06,2.16-1.82,2.21-3.19,2.24c-9.89,0.25-19.79,0.24-29.68,0.02c-1.34-0.03-2.61-0.41-3.41-1.66c-0.8-3.74,1-7.14,1.53-10.7
		c0.57-3.87,0.68-7.2-3.66-9.17c-3.14-1.43-3.03-4.57-2.68-7.39c0.6-4.93,1.09-9.91,2.43-14.71c0.79-2.83,0.22-4.35-2.9-4.83
		c-1.96-0.3-4.12-1.15-5.09-2.86c-2.23-3.9-4.77-2.58-7.32-0.79c-4.76,3.32-9.32,6.89-12.88,11.57c-1.11,1.45-2.44,3.32-4.41,2.49
		c-1.89-0.8-1.54-3.05-1.39-4.84C141.7,354.81,141.85,350.19,144.31,346.11z"/>
	<path class="st2" d="M127.9,403.88c-1.64,1.16-2.68,2.4-5.24,0.47c-3.16-2.39-6.28-0.51-7.53,3.51c-0.73,2.35-1.49,4.69-2.24,7.04
		c-1.86-0.02-1.21-1.14-0.91-2.1c0.47-11.23-0.68-22.21-4.77-32.78c-1.46-3.78-3.68-6.93-6.48-9.9
		c-7.76-8.19-12.11-17.62-9.32-29.24c1.33,5.23,1.63,10.87,6.69,15.55c0.01-17.29,3.03-33.15,12.42-47.18
		c9.52-14.22,23.01-22.9,39.73-28.15c-0.74,2.62-2.67,3.04-4.02,3.9c-13.03,8.32-24.49,18.25-33.06,31.28
		c-6.15,9.34-9.72,19.54-10.88,30.66c-1.64,15.69,7.32,26.58,16.71,37.28c0.93,1.06,2.4,1.76,3.98,1.83c0.56,0.42,1.19,0.4,1.86,0.4
		c6.76-0.01,7.75,1.08,7.15,7.78c-0.86,2.17-1.09,4.52-1.9,6.71C129.72,402.18,129.01,403.18,127.9,403.88z"/>
	<path class="st3" d="M130.98,394.89c0.01-0.65-0.07-1.31,0.04-1.95c0.56-3.28,0.29-5.67-4.12-5.24c-1.28,0.13-2.87-0.49-3.93-1.66
		c4.07-0.52,2.14-5.8,5.48-6.9c0.61,0.87,0.37,1.91,0.59,2.85c0.41,1.79,1.68,2.43,2.62,0.73c3.14-5.65,8.31-10.4,8.1-17.59
		c1.87-3.02,0.32-6.47,1.25-9.66c0.93-3.2,0.29-6.91,3.3-9.38c-1.73,5.73-3.16,11.49-2.02,17.6c2.04,0.59,2.49-1.3,3.34-2.28
		c4.94-5.68,10.3-10.84,17.09-14.24c1.92-0.96,4-2.86,4.59,1.74c0.44,3.38,4.47,3.64,7.28,4.09c3.07,0.48,3.3,1.63,2.5,4.27
		c-1.9,6.22-2.7,12.63-2.69,19.15c0,2.16,0.12,3.67,3.06,3.9c3.15,0.24,3.58,3.14,3.5,5.7c-0.15,4.48-1.07,8.85-2.85,13
		c-1.76,2.79-7.4,4.78-10.22,3.57c-1.33-0.57-1.55-1.58-0.94-2.83c0.1-1.88,0.88-3.52,1.88-5.04c2.25-3.41,2.48-7.06,1.67-10.94
		c-0.91-4.36-1.77-8.73-2.54-13.11c-1.02-5.8,0.47-10.77,5.11-14.61c0.7-1.45,0.12-1.59-1.1-1.07c-0.64-0.02-1.29-0.04-1.93-0.05
		c-2.92-0.58-4.69-2.33-5.22-5.22c-7.85,4.23-13.93,10.45-19.67,17.07c-0.22,0.25-0.61,0.44-0.67,0.72
		c-1.79,7.97-7.94,13.71-10.8,21.12c-0.53,1.37-0.73,2.9-0.49,4.42c-0.42,1.29-0.83,2.57-1.25,3.86
		C130.07,396.99,130.62,395.89,130.98,394.89z"/>
	<path class="st4" d="M326.13,404.65c2.23,2.11,4.46,4.22,6.7,6.33c-1.4,1.44-3.25,1.54-5.06,1.56c-8.59,0.1-17.18,0.09-25.76,0.01
		c-1.85-0.02-3.62-0.31-5.12-1.52c-0.26-0.04-0.53-0.07-0.79-0.11c-1.42-0.85-2.84-1.51-4.61-1.48c-6.93,0.09-13.86,0.07-20.79,0.01
		c-1.76-0.02-3.25,0.38-4.5,1.6l-0.38-0.1c-3.08,2.3-6.67,1.32-10.06,1.47c-3.29,0.15-6.59-0.03-9.89,0.07
		c-2.11,0.06-3.98,0.5-4.36,3.04c-0.1,1.07-0.01,2.15-0.11,3.22c-0.01,1.07,0.04,2.14-0.02,3.21c0.02,1.59,0,3.18-0.02,4.77
		c0,1.06,0.04,2.11,0,3.17c0.03,1.07,0.02,2.13,0.01,3.2c0.08,1.09,0.01,2.19,0.03,3.28c0.11,1.99,0.04,3.98,0.04,5.97
		c-0.09,2.94,0.76,6.03-1.42,8.62c-1.27-0.97-0.99-2.37-0.99-3.66c0.02-14.75,0.06-29.5,0.09-44.26c3.96,1.49,8.09,1.41,12.23,1.39
		c23.27-0.08,46.55,0.12,69.82-0.12C322.84,404.31,324.47,404.68,326.13,404.65z"/>
	<path class="st5" d="M326.13,404.65c-2.54,1.22-5.25,1.35-8,1.34c-24.36-0.01-48.71-0.04-73.07,0.04
		c-2.64,0.01-4.87-0.17-5.94-2.99c-0.04-0.33-0.07-0.65-0.07-0.98c1.69-1.07,3.56-0.53,5.33-0.53c22.38-0.04,44.75-0.02,67.13-0.04
		c1.81,0,3.65,0.3,5.43-0.31C320.39,401.31,323.31,402.86,326.13,404.65z"/>
	<path class="st6" d="M351.02,446.8c-0.32-0.86-1.05-0.89-1.8-0.91c-1.71-1.6-5.25-2.57-2.04-5.89c9.61-1.22,19.24-0.53,28.86-0.41
		c1.2,0.02,2.22,0.65,3.21,1.27c1.06-0.09,2.14-0.25,2.7,0.99c1.46,1.67,3.42,0.96,5.16,0.97c10.82,0.07,21.64,0.03,32.46,0.04
		c6.51,0,6.98,0.65,5.44,7.32c-1.57-1.55-3.32-2.62-5.66-2.61c-21.61,0.1-43.22-0.48-64.82,0.32
		C353.34,447.62,352.02,447.74,351.02,446.8z"/>
	<path class="st5" d="M165.13,405.98c-0.12-1.14-0.14-2.25,0.88-3.07c16.66-2.87,33.46-0.93,50.19-1.33
		c7.25-0.17,14.56-0.75,21.8,0.49c-0.5,2.57,1.27,5.49-1.15,7.78c-0.36-0.42-0.62-0.9-0.78-1.41c-0.22-1.24-0.95-1.34-2.14-1.3
		c-20.53,0.68-41.06,0.22-61.59,0.32C169.85,407.47,167.33,407.4,165.13,405.98z"/>
	<path class="st7" d="M353.85,447.02c2.7-0.87,5.45-1.1,8.3-1.09c19.38,0.06,38.75,0.1,58.13-0.03c3.24-0.02,5.15,0.64,4.75,4.28
		c-0.35,0.27-0.7,0.54-1.05,0.81c-4.88-1.19-9.83-0.43-14.75-0.51c-8.76-0.15-17.53-0.04-26.29-0.04
		c-7.71-0.32-15.45,0.66-23.15-0.51l-0.22-0.18l-0.28,0.04C357.1,449.59,354.76,449.7,353.85,447.02z"/>
	<path class="st4" d="M343.97,409.07c2.03-0.2,3.13-1.64,4.2-3.12c2.22,0.21,3.89-1.19,5.78-1.98c7.91-0.63,15.83-0.56,23.76-0.28
		c0.94,0.67,0.81,1.48,0.31,2.35c-0.3,0.34-0.6,0.68-0.9,1.02c-0.41,4.63-3.31,5.7-7.43,5.5c-7.93-0.39-15.9,0.61-23.81-0.6
		C344.6,411.42,343.73,410.61,343.97,409.07z"/>
	<path class="st7" d="M156.81,450.94c0.2-2.53,1.1-4.85,2.2-7.11c7.9,0.96,15.84,0.95,23.78,0.85c1.96-0.02,4.02-0.32,5.56,1.38
		c0.13,1.44,0.63,2.93-0.49,4.22c-7.88,0.36-15.77,0.02-23.65,0.19c-1.58,0.03-3.29-0.59-4.75,0.59c-0.18,0.31-0.36,0.63-0.54,0.94
		C158.22,451.65,157.51,451.3,156.81,450.94z"/>
	<path class="st8" d="M139.76,365.14c2.77,3.16,0.43,5.95-0.89,8.57c-1.84,3.68-4.95,6.62-6.44,10.55
		c-0.87,2.29-2.28,0.98-3.63,0.59c-1.64-0.48-2.13-1.34-1.4-2.93c0.41-0.89,0.7-1.85,1.04-2.78c3.05-4.27,6.76-8.13,8.62-13.16
		C137.68,364.34,138.63,364.67,139.76,365.14z"/>
	<path class="st7" d="M323.95,446.97c-0.88,1.32-2.93,1.23-3.51,2.91c-4.23,0.53-8.47,0.68-12.73,0.57
		c-4.92,0.34-9.9-0.69-14.78,0.58c-0.66-0.02-1.33-0.04-1.99-0.06c0.19-1.88,1.35-3.07,2.83-4.04c1.24-1.44,2.78-2.33,4.72-2.38
		c6.93-0.19,13.87-0.28,20.8,0.06C321.14,444.69,322.89,445.22,323.95,446.97z"/>
	<path class="st9" d="M237.98,421.05c-0.49,2.22,1.07,4.8-1.14,6.73c-0.35-0.39-0.62-0.83-0.84-1.31c-0.29-0.74-0.43-1.53-0.81-2.24
		c-1.62-1.28-3.52-0.73-5.28-0.74c-9.77-0.07-19.55-0.01-29.32-0.04c-2.14-0.01-4.33,0.21-6.29-0.98c-0.85-0.7-0.76-1.57-0.45-2.49
		l0.38,0.02c0.57-0.38,1.19-0.5,1.87-0.5c12.69,0,25.37-0.08,38.06,0C235.64,419.51,237.19,419.34,237.98,421.05z"/>
	<path class="st10" d="M93.65,465.35c-3.39,11.63-13.8,12.59-23.09,15.24C77.64,474.58,86.66,471.51,93.65,465.35z"/>
	<path class="st11" d="M237.99,402.08c-20.7-0.03-41.4,0.05-62.09-0.18c-3.4-0.04-6.4,2.77-9.89,1.01c0.22-1.08-0.4-2.42,0.95-3.16
		c1.93,2.39,7.56,2.02,11.15-0.74c0.09,0.94-0.1,2,1.44,1.99c11.27-0.1,22.54-0.17,33.81-0.28c0.21,0,0.42-0.46,0.62-0.71
		c6.07,2.1,12.34,0.45,18.49,1.01C234.34,401.19,236.45,400.21,237.99,402.08z"/>
	<path class="st12" d="M316.94,401.18c-1.57,1.4-3.49,0.78-5.25,0.79c-24.21,0.06-48.43,0.08-72.64,0.1
		c1.39-1.76,3.35-1.02,5.07-1.04c8.73-0.11,17.46-0.11,26.19-0.15C285.86,400.98,301.4,401.08,316.94,401.18z"/>
	<path class="st13" d="M407.69,409.04c0.31-1.56,0.95-2.96,2.05-4.12c2.66-1.97,5.75-1.31,8.7-1.34c2.49-0.02,4.95-0.27,7.42-0.53
		c-0.31,2.29,1.14,4.86-1.09,6.85C419.12,408.7,413.33,410.27,407.69,409.04z"/>
	<path class="st14" d="M377.88,403.99c-7.98,1.65-15.96,1.65-23.93-0.01c3.46-2.75,7.56-1.93,11.48-2c4.49-0.07,8.98,0,13.48,0.01
		C379.58,403.18,378.66,403.54,377.88,403.99z"/>
	<path class="st15" d="M240.02,450.97c0.03-2.99,0.06-5.99,0.08-8.98c2.92-1.86,5.65-2.16,7.97,0.96c-0.81,4.19-4.08,6.46-7.02,8.98
		C240.71,451.61,240.36,451.29,240.02,450.97z"/>
	<path class="st16" d="M237.98,421.05c-1.72-1.32-3.74-1.06-5.7-1.06c-12.69,0-25.38,0.01-38.06,0.01c1.46-2.04,3.56-0.82,5.34-0.97
		c6.86-0.59,13.95,1.31,20.54-2.04c3.72,3.81,8.46,1.19,12.65,2.02C234.59,419.37,237.31,417.65,237.98,421.05z"/>
	<path class="st5" d="M425.86,403.04c-2,2.88-5.02,1.83-7.7,1.92c-2.8,0.1-5.61-0.02-8.41-0.05c0.36-1.53,0.8-3.02,2.15-4.02
		c2.43,2.11,5.34,0.6,7.99,1.07C421.87,402.32,424.16,401.06,425.86,403.04z"/>
	<path class="st17" d="M439.8,328.63c0-0.43-0.01-0.86-0.01-1.29c0.55-1.61,2.77-1.04,3.12-2.72c2.16,0.8-0.54,2.92,1.33,3.62
		c-4.18,3.81-8.35,7.63-12.53,11.44c-0.53-3.22,1.26-4.39,2.74-5.77C436.39,332.31,438.12,330.49,439.8,328.63z"/>
	<path class="st18" d="M382.8,450.09c12.69-0.04,25.38-0.09,38.07-0.12c1.14,0,2.35-0.14,3.11,1.03c-13.68,0-27.36,0-41.05,0
		c-0.26-0.17-0.37-0.36-0.32-0.57C382.66,450.2,382.72,450.09,382.8,450.09z"/>
	<path class="st19" d="M136.26,351.94c2.25,4.39,0.63,8.64-0.48,14.03C133.71,360.46,134.02,356.16,136.26,351.94z"/>
	<path class="st20" d="M236.83,427.4c0,0,0.01,0.38,0.01,0.38c-8.53,1-17.1,0.1-25.65,0.48c-0.22,0.01-0.41-0.06-0.57-0.22
		c-0.03-0.7,0.25-1.25,0.83-1.65c7.64-1.58,15.35-0.68,23.03-0.56C235.47,425.84,236.32,426.45,236.83,427.4z"/>
	<path class="st21" d="M382.8,450.09c0.01,0.31,0.06,0.61,0.13,0.91c-0.29,0.15-0.59,0.26-0.92,0.32
		c-5.72-0.1-11.44-0.16-17.16-0.32c-1.73-0.05-3.65,0.59-5.07-1.06C367.46,449.99,375.13,450.04,382.8,450.09z"/>
	<path class="st22" d="M236.89,409.35c-0.13,0.16-0.14,0.32-0.04,0.5c-4.94,0.12-9.87,0.19-14.81,0.4
		c-1.49,0.06-3.42-0.84-4.26,1.38c-0.35-0.55-0.69-1.1-1.04-1.64c-0.09-0.7,0.17-1.24,0.76-1.62
		C224.02,407.52,230.58,405.88,236.89,409.35z"/>
	<path class="st23" d="M133.2,411.24c-0.74,2.65-2,4.99-4.03,6.88c-0.42-0.99-2.33-1.42-1.13-3.01c2.16-1.06,2.39-3.65,4.03-5.12
		C133.05,409.86,133.69,410.03,133.2,411.24z"/>
	<path class="st24" d="M407.69,409.04c5.69,0.39,11.47-1.11,17.08,0.85c-5.87,0.68-11.75,0.31-17.62,0.17
		C407.32,409.72,407.51,409.38,407.69,409.04z"/>
	<path class="st25" d="M198.05,338.05c2.94-2.35,6.81,0.2,9.81-1.86c1.39-0.28,2.44,0.34,4.05,1.86
		C206.85,338.05,202.45,338.05,198.05,338.05z"/>
	<path class="st26" d="M336.94,387.05c-0.98-0.77-2.13-1.39-2.68-3.06c3.95,0.08,7.18,1.32,9.9,3.91
		C341.64,388.59,339.69,384.41,336.94,387.05z"/>
	<path class="st22" d="M292.93,451.03c4.96-2.19,10.16-0.65,15.24-0.94c0.35,0.25,0.63,0.57,0.84,0.95l-0.37,0.27
		c0,0-0.46-0.04-0.45-0.04C303.11,451.19,298.02,451.11,292.93,451.03z"/>
	<path class="st27" d="M211.19,445.02c0.98-2.94,3.41-1.65,5.36-1.9c1.5-0.19,3.06,1.87,4.47-0.15c1.33,3.54-1.76,1.93-2.58,1.86
		C216,444.65,213.6,443.79,211.19,445.02z"/>
	<path class="st28" d="M520.05,293.22c-1.6,1.24-3.48,1.57-6.59,1.89c2.15-1.33,3.37-2.09,4.6-2.85
		C518.72,292.58,519.39,292.9,520.05,293.22z"/>
	<path class="st29" d="M127.9,403.88c0.46-0.93,0.92-1.87,1.38-2.8c1.88,0.04,1.15,1.2,0.92,2.15c-0.09,1.36-0.03,2.76-1.06,3.86
		C128.76,406.02,129.32,404.57,127.9,403.88z"/>
	<path class="st30" d="M111.98,412.8c0.3,0.7,0.61,1.4,0.91,2.1c-0.15,1.42-0.49,2.76-2.32,3.76
		C111.04,416.71,111.51,414.75,111.98,412.8z"/>
	<path class="st31" d="M528.81,292.95c-0.7-0.35-1.4-0.69-2.1-1.04c1.78-1.41,3.83-0.99,6.27-1.29
		C531.7,292.52,530.16,292.55,528.81,292.95z"/>
	<path class="st32" d="M341.81,367.21c-2.33,1.09-3.74,1.06-5.39,0.52C337.85,366.22,339.32,367.25,341.81,367.21z"/>
	<path class="st33" d="M281.76,389.91c-0.43,0.96-1.07,2.76-1.99,1.82c-0.83-0.84,0.05-2.83,1.06-4.06
		C281.14,388.42,281.45,389.17,281.76,389.91z"/>
	<path class="st34" d="M281.08,385.1c-0.35-0.36-0.71-0.72-1.06-1.09c0.27-1.13,0.76-2.08,2.27-2.54
		C282.76,383.05,282.21,384.15,281.08,385.1z"/>
	<path class="st35" d="M377.88,403.99c0.34-0.67,0.68-1.33,1.03-2c0.26-0.19,0.56-0.32,0.88-0.37c0.17,1.78-0.51,3.21-1.77,4.42
		C377.97,405.35,377.92,404.67,377.88,403.99z"/>
	<path class="st36" d="M296.88,411.03c11.98-0.02,23.96-0.03,35.95-0.05c0.65,1.73,2.49,2.85,2.48,4.92
		c-1.06,1.28-2.54,1.54-4.04,1.52c-9.93-0.09-19.87,0.46-29.8-0.29c-2.64-0.77-3.05-3.41-4.42-5.25
		C297,411.59,296.95,411.31,296.88,411.03z"/>
	<path class="st37" d="M297.09,440.97c0.73-1.67,1.46-3.34,2.2-5c1.96-1.58,4.3-1.48,6.62-1.48c9.42,0,18.84-0.01,28.26-0.01
		c1.22,0.2,1.27,1.1,1.23,2.06c-1.64,2.06-2.45,4.94-5.5,5.62c-9.57,0.78-19.16,0.3-28.74,0.28
		C299.67,442.43,298.17,442.22,297.09,440.97z"/>
	<path class="st6" d="M297.09,440.97c11.36,0.02,22.72,0.04,34.08,0.06c0.22,0.43,0.17,0.84-0.09,1.23
		c-1.91,1.81-3.32,4.28-6.31,4.61c0,0-0.46,0.04-0.46,0.04l0,0c-0.11,0.15-0.81,1.15-1.43,1.58c-0.11,0.07-0.22,0.14-0.22,0.14
		c-0.23,0.14-0.54,0.3-0.93,0.43c0,0-0.39,0.09-0.83,0.07c-1.38-0.09-13.53-2.76-17.31-3.25c-2.3-0.3-5.61-0.32-9.81,1.03
		C294.88,444.94,295.98,442.95,297.09,440.97z"/>
	<path class="st36" d="M240.03,415.99c-0.57-3.82,0.83-5.28,4.89-5.09c6.95,0.32,13.93,0.07,20.89,0.05
		c-0.91,1.7-1.82,3.39-2.73,5.09C255.39,418.33,247.71,418.43,240.03,415.99z"/>
	<path class="st38" d="M336.09,418.9c0.3,0.36,0.59,0.72,0.89,1.08c0.64,1.86,0.94,3.7-0.26,5.47c-2.11,1.31-4.48,0.9-6.76,0.92
		c-7.59,0.05-15.18,0.05-22.76,0c-2.12-0.01-4.34,0.29-6.09-1.4c-0.01-1-0.02-2-0.02-3c2.26-1.89,4.98-1.6,7.62-1.54
		c7.16,0.19,14.32,0.08,21.48,0.07c1.79,0,3.72,0.35,5.12-1.28C335.57,419.12,335.83,419.01,336.09,418.9z"/>
	<path class="st39" d="M334.92,434.97c-1.94,1.29-4.13,1-6.27,1.01c-9.79,0-19.57,0-29.36,0c0.52-2.03,1.04-4.07,1.57-6.1
		c0.26,0.11,0.52,0.23,0.79,0.34c1.55,1.74,3.65,1.27,5.58,1.29c9.43,0.12,18.86-0.12,28.29,0.1
		C337.24,433.06,336.21,434.04,334.92,434.97z"/>
	<path class="st40" d="M300.15,415.98c11.72-0.03,23.44-0.05,35.16-0.08c0.89,0.83,0.81,1.93,0.79,3c0,0-0.25,0.16-0.25,0.16
		c-1.14,1.13-2.6,1.36-4.11,1.38c-9.07,0.12-18.14-0.04-27.21-0.04c-1.37,0-2.57-0.53-3.65-1.36c-0.22-0.05-0.43-0.07-0.65-0.08
		C299.17,417.99,299.28,417,300.15,415.98z"/>
	<path class="st41" d="M300.85,429.87c0.08-0.97,0.15-1.93,0.23-2.9c0.94-0.83,2.09-0.96,3.27-0.96c9.65-0.04,19.3-0.05,28.95,0.01
		c1,0.01,2,0.09,2.83,0.77c1.22,2.46,0.04,4.2-2.24,4.3c-10.52,0.49-21.05,0.94-31.56-0.22c-0.5-0.06-0.83-0.52-1.22-0.82
		L300.85,429.87z"/>
	<path class="st9" d="M300.87,419.04c11.66,0.01,23.32,0.01,34.98,0.02c0.43,3.15-1.75,2.92-3.77,2.92
		c-10.33-0.01-20.66-0.01-30.99-0.01C301.02,421,300.94,420.02,300.87,419.04z"/>
	<path class="st42" d="M240.05,426.99c0-1.67,0-3.33-0.01-5c6.95-2.39,13.89-2.41,20.84-0.02c-0.98,2.65-1.95,5.3-2.93,7.95
		c-2.03,0.19-1.67-1.4-1.93-2.56c-0.06-0.28,0.47-0.87-0.18-0.79c-0.29,0.03-0.59,0.7-1.01,1.01c-0.47,0.26-0.95,0.43-1.47,0.55
		C248.88,428.19,244.3,429.54,240.05,426.99z"/>
	<path class="st43" d="M335.98,426.98c-11.63,0-23.27,0-34.9-0.01c0.01-0.67,0.02-1.33,0.03-2c11.9,0,23.8,0,35.7,0
		c0.8,0.5,0.65,1.22,0.44,1.95C336.85,427.28,336.42,427.31,335.98,426.98z"/>
	<path class="st40" d="M240.03,415.99c7.69,0.02,15.37,0.04,23.06,0.06c-0.05,1.11-0.18,2.19-1.13,2.95
		c-7.31,2.35-14.61,2.36-21.92,0C240.03,417.99,240.03,416.99,240.03,415.99z"/>
	<path class="st44" d="M248.07,442.95c-2.52-1.46-5.29-0.87-7.97-0.96c0-2-0.01-4-0.01-6c3.95-2.19,7.9-2.29,11.86-0.03
		C251.35,438.67,250.02,440.99,248.07,442.95z"/>
	<path class="st9" d="M240.03,418.99c7.31,0,14.61,0,21.92,0c0.13,1.16-0.41,2.09-1.07,2.98c-6.95,0.01-13.9,0.01-20.84,0.02
		C240.04,420.99,240.04,419.99,240.03,418.99z"/>
	<path class="st45" d="M240.08,432.98c0-1-0.01-2-0.01-3c4.51-2.42,9.11-1.9,13.75-0.46c0.85,0.79,0.78,1.66,0.2,2.56
		c-0.31,0.31-0.62,0.63-0.93,0.94C248.74,435.17,244.41,435.24,240.08,432.98z"/>
	<path class="st46" d="M187.94,449.93c-0.02-1.32-0.04-2.64-0.06-3.96c-1.12-1.41-1.21-3.08-1.19-4.77
		c-0.03-1.62-0.04-3.24,0.01-4.85c0-1.04-0.03-2.09,0.02-3.13c0-1.02,0-2.03,0.03-3.05c-0.01-1,0.01-1.99,0.02-2.99
		c-0.02-0.74-0.01-1.47,0-2.21c-0.01-0.97,0.01-1.95,0.01-2.92c-0.01-0.97,0-1.94,0.02-2.91c0.01-0.97,0.07-1.94,0.25-2.91
		c0.57-1.89,1.1-3.82,3.35-4.44c0.23,0.09,0.45,0.18,0.68,0.27c-3.93,9.55-1.19,19.56-2.06,29.32c-0.29,3.18,1.12,6.56-1.04,9.53
		c-0.3-0.21-0.41-0.42-0.32-0.64C187.75,450.04,187.85,449.93,187.94,449.93z"/>
	<path class="st39" d="M240.08,432.98c4.34,0.01,8.67,0.03,13.01,0.04c0,1.12-0.3,2.13-1.14,2.93c-3.95,0.01-7.91,0.02-11.86,0.03
		C240.09,434.98,240.08,433.98,240.08,432.98z"/>
	<path class="st1" d="M266.19,411.05c0.35-1.99,1.9-2.03,3.4-2.04c7.61-0.02,15.23-0.02,22.84,0c1.52,0,3.01,0.19,3.66,1.91
		C286.12,409.64,276.15,409.32,266.19,411.05z"/>
	<path class="st47" d="M187.94,449.93c0.03,0.33,0.04,0.65,0.03,0.98c-9.51,0.05-19.01,0.1-28.52,0.15
		c1.03-2.03,2.91-1.03,4.37-1.05C171.86,449.89,179.9,449.94,187.94,449.93z"/>
	<path class="st21" d="M216.91,409.15c0.01,0.29-0.05,0.57-0.17,0.84c-7.23,0.02-14.46,0.03-21.68,0.05
		c-0.3-0.68-0.14-1.22,0.47-1.62C202.7,407.37,209.88,406.11,216.91,409.15z"/>
	<path class="st48" d="M210.87,427.16c-0.03,0.31-0.12,0.6-0.26,0.88c-5.5-0.03-11-0.06-16.5-0.09c-0.37-0.65-0.24-1.17,0.39-1.57
		C200.01,425.56,205.54,424.27,210.87,427.16z"/>
	<path class="st49" d="M255.05,427.04c-0.01-0.83-0.02-1.8,0.84-2.11c1.35-0.48,1.03,0.73,1.11,1.41c0.15,1.24-0.33,2.64,0.95,3.58
		c0.29,1.7-0.27,3.11-1.66,4.57c-0.15-1.3-0.27-2.37-0.4-3.44C254.85,429.87,254.74,428.5,255.05,427.04z"/>
	<path class="st50" d="M300.14,415.98c0.02,1,0.05,1.99,0.07,2.99c-1.79-2.04-2.58-4.52-3.18-7.09
		C299.23,412.37,299.13,414.59,300.14,415.98z"/>
	<path class="st51" d="M194.15,426.94c-0.01,0.34-0.02,0.68-0.03,1.01c-1.78-2.6-1.37-5.28-0.27-7.97c0.12,0.67,0.25,1.33,0.37,2
		c0.64,0.85,0.96,1.81,0.87,2.88C195,425.65,194.63,426.32,194.15,426.94z"/>
	<path class="st52" d="M195.03,409.23c0.01,0.27,0.02,0.54,0.02,0.81c-1.05,1.21-2.45,1.75-3.98,2.02c0,0-0.39-0.27-0.39-0.27
		c-0.07-0.49,0.02-0.95,0.24-1.39C192.08,409.25,193.08,407.55,195.03,409.23z"/>
	<path class="st53" d="M255.05,427.04c1.66,1.04,0.9,2.6,0.85,4.01c-0.63,0.35-1.26,0.69-1.89,1.04c0.04-0.69,0.08-1.38,0.12-2.08
		c-0.25-1.17-0.04-2.2,0.9-3.01L255.05,427.04z"/>
	<path class="st54" d="M344.95,410.98c8.37,0,16.76-0.18,25.12,0.1c3.45,0.11,5.95-0.46,7.04-4.02c-0.25,2.83-0.92,5.65-0.25,8.51
		c-0.35,0.57-0.82,1.02-1.42,1.33c-10.24,1.19-20.52,0.4-30.78,0.44c-1.18,0-2.27-0.46-3.05-1.44c0.2-1.3,0.4-2.6,0.6-3.9
		C343.02,411.38,343.72,410.44,344.95,410.98z"/>
	<path class="st39" d="M376.87,432.19c0.07,1.24,0.14,2.49,0.22,3.73c-0.85,1.99-2.66,2.44-4.49,2.45
		c-9.69,0.07-19.4,0.73-29.08-0.36c-2.56-1.38-3.16-3.55-2.52-6.23c11.41-0.63,22.83-0.1,34.25-0.28
		C375.89,431.51,376.43,431.74,376.87,432.19z"/>
	<path class="st55" d="M342.85,437.01c9.48-0.01,18.96-0.04,28.44-0.03c2.01,0,4,0.02,5.8-1.06c1.17,1.45,2.03,3.04,2.17,4.94
		c-11.14,0.05-22.28,0.1-33.42,0.15C343.37,440.79,342.83,439.11,342.85,437.01z"/>
	<path class="st56" d="M376.87,432.19c-0.25-0.16-0.51-0.3-0.77-0.42c-0.69-0.42-0.98-1.08-1.15-1.82c-0.19-0.97-0.2-1.95-0.22-2.94
		c-0.03-0.73-0.03-1.47-0.02-2.2c-0.02-0.99-0.02-1.98-0.02-2.97c-0.03-1.02-0.02-2.04,0.07-3.06c0.11-1.08,0.48-2.03,1.36-2.73
		c0.26-0.13,0.51-0.29,0.75-0.47C376.86,421.11,376.87,426.65,376.87,432.19z"/>
	<path class="st57" d="M439.8,328.63c-0.98,2.57-2.72,4.37-5.34,5.28C435.85,331.76,437.56,329.92,439.8,328.63z"/>
	<path class="st58" d="M133.2,393.05c-2.45-2.96-0.47-5.31,0.75-8.06c2.59-5.8,6.74-10.59,8.9-16.91c1.65-4.83,7.01-9.3,11.83-12.85
		c0.4-0.29,0.95-0.41,1.28-0.76c2.3-2.48,5.05-5.02,8.22-5.21c2.89-0.18,3.19,4.41,5.86,5.68c-4.27,2.07-7.6,5.24-10.62,8.82
		c-3.12,3.71-6.49,7.14-11.39,8.47c-2.66,0.73-2.16,2.33-1.34,4.21c1.01,2.32,3.29,3.12,5.28,4.65c-3.56,2.47-6.99,4.85-10.43,7.22
		c-0.4,0.27-1.07,0.77-1.25,0.65C134.88,385.1,135.45,391.53,133.2,393.05z"/>
	<path class="st4" d="M195.03,409.23c-1.7-0.19-2.7,1.3-4.15,1.71c-1.65,1.24-3.55,1.61-5.56,1.62c-5.41,0.03-10.82,0.09-16.23-0.03
		c-1.79-0.04-3.64-0.04-5.01-1.54c-0.02-1.74-0.22-3.52,1.04-5c21.98,0,43.96,0.01,65.94,0c2.07,0,4.43,0.63,5.82-3.24
		c0,3.02,0,4.81,0,6.61c-6.65-0.71-13.32-0.35-19.98-0.2C209.62,409.18,202.32,409.2,195.03,409.23z"/>
	<path class="st59" d="M140.65,404.15c-3.36-4.63-1.49-8.17,2.15-11.59c4.49-4.22,9.1-8.22,14.92-10.49c1.8-0.7,3.83-1.84,5.44,0.26
		c1.57,2.06,1.35,4.36,0.12,6.52c-1.81,3.18-4.94,4.76-8.02,6.4C150.17,397.95,144.66,399.94,140.65,404.15z"/>
	<path class="st60" d="M187.88,435.97c0,1.66,0,3.33,0,4.99c-1.57,1.55-3.6,1.47-5.56,1.5c-7.72,0.12-15.44-0.19-23.15,0.47
		c-0.23-2.4-0.21-4.76,0.97-6.96c1.15-1.12,2.6-1.43,4.13-1.45c6.49-0.06,12.99-0.06,19.48,0
		C185.29,434.54,186.76,434.79,187.88,435.97z"/>
	<path class="st61" d="M159.18,442.93c1.3-1.87,3.17-2.01,5.26-1.99c7.81,0.08,15.63,0.03,23.45,0.02c0,1.67,0,3.33,0,5
		c-8.87,0.26-17.74,0.26-26.6-0.36c-1.48-0.1-2.15-0.35-2.28-1.76C158.91,443.5,158.97,443.2,159.18,442.93z"/>
	<path class="st54" d="M164.09,410.98c8.93-0.01,17.86-0.03,26.79-0.04c-0.08,0.28-0.14,0.56-0.19,0.84
		c-1.64,0.93-2.01,2.69-2.77,4.2c-1.11,1.13-2.54,1.43-4.04,1.46c-5.56,0.1-11.12,0.01-16.68,0c-1.51,0-2.92-0.34-4.05-1.45
		C163.08,414.24,162.87,412.48,164.09,410.98z"/>
	<path class="st62" d="M142.16,420.15c-0.52,3.23-1.59,6.37-0.74,9.77c0.53,2.09-1.2,3.26-2.75,4.25
		c-3.68,2.37-7.73,3.51-12.69,3.84c6.5-6.03,10.91-12.94,15.16-19.97C143.05,417.99,142.54,419.1,142.16,420.15z"/>
	<path class="st39" d="M187.88,435.97c-9.24,0-18.49,0-27.73,0c-0.01-1.82-0.51-3.71,0.7-5.37c6.6,1.88,13.35,0.47,20.02,0.9
		c2.41,0.15,4.97-0.44,7.01,1.48C187.88,433.97,187.88,434.97,187.88,435.97z"/>
	<path class="st63" d="M187.88,432.97c-7.46,0-14.92,0.02-22.38-0.01c-1.92-0.01-4.18,0.52-4.65-2.37
		c-0.13-0.24-0.09-0.45,0.13-0.62c1.19-0.97,2.56-1.44,4.1-1.45c6.25-0.06,12.49-0.06,18.74,0c1.51,0.02,2.95,0.28,4.06,1.45
		C187.88,430.97,187.88,431.97,187.88,432.97z"/>
	<path class="st64" d="M187.88,418.98c0,1,0,2,0,3c-1.13,1.18-2.59,1.44-4.12,1.46c-5.83,0.07-11.65,0.06-17.48,0
		c-1.53-0.02-2.98-0.33-4.13-1.46c-0.06-1.77-0.34-3.58,0.82-5.16c6.05,1.38,12.2,0.32,18.29,0.73
		C183.54,417.7,185.96,417.2,187.88,418.98z"/>
	<path class="st41" d="M187.88,429.97c-8.97,0-17.93,0-26.9,0c0.02-0.33,0.03-0.66,0.05-0.99c0.72-1.74,1.65-3.23,3.84-3.27
		c6.95-0.14,13.91-0.36,20.86,0.13c0.85,0.06,1.55,0.55,2.16,1.14C187.88,427.97,187.88,428.97,187.88,429.97z"/>
	<path class="st65" d="M162.16,421.98c8.58,0,17.15,0,25.73,0c0,1,0,2,0,3c-4.25,2.05-8.77,0.66-13.15,0.96
		c-3.12,0.21-6.28,0.13-9.41-0.01c-1.51-0.06-3.53,0.32-3.43-2.29C161.97,423.09,162.07,422.53,162.16,421.98z"/>
	<path class="st40" d="M187.88,418.98c-6.9,0-13.79,0.02-20.69-0.01c-1.72-0.01-3.83,0.55-4.22-2.15c-0.13-0.32-0.08-0.6,0.17-0.84
		c8.26,0,16.51,0,24.77,0C187.91,416.98,187.89,417.98,187.88,418.98z"/>
	<path class="st43" d="M161.88,423.64c1.27,1.94,3.27,1.3,5.02,1.31c6.99,0.06,13.99,0.02,20.99,0.02c0,0.67,0,1.33,0,2
		c-7.22,0-14.44,0.08-21.66-0.04c-2.13-0.04-3.84,0.41-5.19,2.05C161.12,427.17,160.71,425.28,161.88,423.64z"/>
	<path class="st66" d="M142.71,414.84c0.94-2.71,1.76-5.47,3.94-8.48c0.54,3.83-0.83,6.29-2.31,8.71
		C143.73,415.43,143.19,415.35,142.71,414.84z"/>
	<path class="st67" d="M130.21,403.24c-0.31-0.72-0.61-1.43-0.92-2.15c0.57-2.06,1.13-4.13,1.7-6.19c0.32,0.67,0.65,1.35,0.97,2.02
		C131.37,399.02,130.79,401.13,130.21,403.24z"/>
	<path class="st68" d="M142.71,414.84c0.54,0.08,1.08,0.15,1.63,0.23c-0.46,1.81-0.99,3.58-2.18,5.07
		c-0.34-0.71-0.67-1.41-1.01-2.12C141.67,416.97,142.19,415.91,142.71,414.84z"/>
	<path class="st69" d="M133.2,411.24c-0.38-0.42-0.76-0.84-1.13-1.25c0.23-1.34,0.94-2.32,2.46-3.72
		C134.74,408.65,134.26,410.02,133.2,411.24z"/>
	<path class="st1" d="M171.98,354.99c0.95-0.83,2.05-0.99,3.26-0.8c-0.25,1.19-1.04,1.73-2.17,1.87
		C172.71,355.7,172.34,355.35,171.98,354.99z"/>
	<path class="st38" d="M375.81,421.98c-0.01,1-0.02,2-0.03,3c-0.98,1.04-2.26,1.33-3.6,1.34c-9.87,0.07-19.73,0.21-29.6-0.07
		c-0.84-0.02-1.61-0.31-2.31-0.77c-1.28-1.76-0.89-3.62-0.33-5.49c0.29-0.37,0.59-0.74,0.88-1.11c0.27,0.12,0.55,0.24,0.82,0.35
		c1.42,1.58,3.32,1.26,5.12,1.27c7.64,0.04,15.28-0.01,22.92,0.03C371.83,420.53,374.06,420.31,375.81,421.98z"/>
	<path class="st40" d="M376.11,416.04c-0.07,0.98-0.14,1.96-0.21,2.94c-1.28,1.24-2.89,1.47-4.57,1.48c-8.55,0.03-17.1,0.03-25.64,0
		c-1.66-0.01-3.3-0.14-4.58-1.4c0,0-0.28-0.18-0.28-0.18c0.01-1.06-0.02-2.13,0.79-2.98C353.11,415.94,364.61,415.99,376.11,416.04z
		"/>
	<path class="st70" d="M339.94,419.99c0.06,1.66,0.11,3.33,0.17,4.99c0.44,0.6,0.81,1.23,0.95,1.97c0.08,1.68,0.75,3.36-0.03,5.03
		c0.15,1.84,0.62,3.57,1.82,5.04c0.78,1.5,1.46,3.07,2.99,4c1.13,1.63,2.26,3.25,3.39,4.88c-1.68-1.23-8.8-6.74-10.09-16.27
		C338.6,425.6,339.27,422.2,339.94,419.99z"/>
	<path class="st71" d="M336.79,426.97c0.01-0.66,0.01-1.33,0.02-1.99c0.06-1.67,0.11-3.33,0.17-5c2.23,6.32,1.17,12.28-1.98,18.02
		c-0.44-0.43-0.5-0.91-0.18-1.44c0.03-0.53,0.06-1.06,0.1-1.59c0.72-0.86,1.14-1.83,0.99-2.98
		C335.85,430.25,336.65,428.67,336.79,426.97z"/>
	<path class="st1" d="M309.01,451.04c-0.28-0.32-0.56-0.63-0.84-0.95c0.65,0.19,1.63,0.43,2.83,0.54c1.36,0.13,2.55,0,4.88-0.25
		c1.37-0.15,3.79-0.41,4.57-0.5C318.96,450.35,317.09,450.81,309.01,451.04z"/>
	<path class="st72" d="M324.76,446.88c2.08-1.64,4.16-3.29,6.23-4.93c0.37-0.4,0.72-0.38,1.06,0.03
		C329.92,444.05,328.88,447.75,324.76,446.88z"/>
	<path class="st73" d="M354.39,449.43c0.73,0.21,1.67,0.41,2.78,0.46c1.07,0.05,2.1-0.05,2.1-0.09c0-0.06-2.1,0.14-3.83-0.12
		c-1.96-0.3-4.54-1.37-7.34-4.66C350.2,446.49,352.3,447.96,354.39,449.43z"/>
	<path class="st74" d="M332.06,441.98c-0.35-0.01-0.71-0.02-1.06-0.03c0.06-0.3,0.11-0.61,0.17-0.91c1.22-1.49,2.44-2.98,3.66-4.48
		c0.06,0.48,0.12,0.96,0.18,1.44C334.15,439.42,333.76,441.19,332.06,441.98z"/>
	<path class="st41" d="M255.03,426.99c-0.04,1.08,0.05,2.2-0.9,3.01c-4.69-0.01-9.38-0.01-14.06-0.02c-0.01-1-0.01-2-0.02-3
		C245.04,426.99,250.04,426.99,255.03,426.99z"/>
	<path class="st38" d="M194.21,424.98c0-1,0-2,0-3c12.81,0,25.62,0,38.43,0.01c2.12,0,4.64-0.5,4.35,3.01
		c-1.1,0.93-2.43,0.97-3.76,0.97c-11.76,0.02-23.52,0.02-35.29,0C196.63,425.96,195.28,425.98,194.21,424.98z"/>
	<path class="st43" d="M194.21,424.98c14.26,0.01,28.52,0.01,42.79,0.02c-0.06,0.8-0.11,1.6-0.17,2.4
		c-8.65-0.82-17.3-0.39-25.96-0.24c-5.58-0.07-11.15-0.15-16.73-0.22C194.17,426.28,194.19,425.63,194.21,424.98z"/>
	<path class="st63" d="M336.79,426.97c0.27,1.77-0.03,3.44-0.88,5.01c-3.09,1.76-6.47,0.9-9.71,0.95
		c-7.09,0.13-14.19,0.03-21.29,0.04c-2.05,0-4.2,0.21-3.8-2.94c10.16-0.02,20.32-0.04,30.47-0.07c2.13-0.01,4.63,0.49,4.39-3
		C336.25,426.97,336.52,426.97,336.79,426.97z"/>
	<path class="st63" d="M341.03,431.98c-0.99-1.55-1.13-3.25-0.9-5.01c0.6-0.26,1.15-0.18,1.66,0.23c1.37,1.69,3.31,1.27,5.08,1.28
		c7.63,0.05,15.26,0,22.89,0.03c2.15,0.01,4.35-0.16,6.12,1.46c0.07,0.6,0.14,1.2,0.21,1.79c-0.23,0.24-0.44,0.67-0.68,0.68
		C363.95,433.03,352.47,433.88,341.03,431.98z"/>
	<path class="st9" d="M341.1,419.06c11.6-0.02,23.2-0.05,34.79-0.07c-0.03,1-0.05,2-0.08,3c-10.29,0-20.59,0-30.88,0.01
		C342.9,421.99,340.68,422.25,341.1,419.06z"/>
	<path class="st41" d="M375.89,429.97c-10.2,0-20.39,0-30.59,0c-2.13,0-4.55,0.42-4.32-3c0.89-0.95,2.06-0.97,3.23-0.97
		c9.45-0.05,18.9-0.05,28.35,0c1.17,0.01,2.33,0.11,3.25,0.97C375.83,427.98,375.86,428.97,375.89,429.97z"/>
	<path class="st43" d="M375.8,426.98c-11.61,0-23.21,0-34.82,0.01c-0.28,0-0.56-0.01-0.84-0.01c-0.01-0.66-0.01-1.33-0.02-1.99
		c11.89,0,23.78,0,35.67,0C375.79,425.64,375.79,426.31,375.8,426.98z"/>
</g>
<path class="st73" d="M353.33,444.5"/>
<path class="st73" d="M686.67,217.33"/>
<path class="st1" d="M278.13,452.25"/>
<path class="st6" d="M300.38,459.75"/>
<path class="st6" d="M301.75,457.63"/>
<path class="st6" d="M303.63,457.88"/>
<path class="st6" d="M301.38,458.75"/>
<polyline class="st6" points="320.44,449.88 320.98,449.83 321.92,449 320.89,449.14 320.67,449.31 "/>
<path class="st72" d="M304.13,468.5"/>
</svg>
